<mxfile host="65bd71144e">
    <diagram id="6nCFtIDsaKFN-WAsG59c" name="Page-1">
        <mxGraphModel dx="1248" dy="813" grid="1" gridSize="10" guides="1" tooltips="1" connect="1" arrows="1" fold="1" page="1" pageScale="1" pageWidth="1920" pageHeight="1200" math="0" shadow="0">
            <root>
                <mxCell id="0"/>
                <mxCell id="1" parent="0"/>
                <mxCell id="6" value="" style="shape=image;verticalLabelPosition=bottom;labelBackgroundColor=#ffffff;verticalAlign=top;aspect=fixed;imageAspect=0;image=data:image/png,iVBORw0KGgoAAAANSUhEUgAAAnsAAAFECAIAAADQkm8lAAAAA3NCSVQICAjb4U/gAAAAEHRFWHRTb2Z0d2FyZQBTaHV0dGVyY4LQCQAAIABJREFUeNrsnWVcVNkfxp87M0zQHdINohKKCHaB3c2KrWuxKtaa2LnqrrHqWitiF2BjByJSKiDd3c0MM8P9v2BQQEVkddfd//l+eMHcOOfcc889z/n9TlE0TYNAIBAIBMI3hkGygEAgEAgEorgEAoFAIBDFJRAIBAKBQBSXQCAQCASiuAQCgUAgEMUlEAgEAoFAFJdAIBAIBKK4BAKBQCAQiOISCAQCgUAUl0AgEAgEorgEAoFAIBCI4hIIBAKB8F9V3MKT1ZRNFWVTRXWvuvufz54qL0TPgui7TFvem86bz+8srWnymuDu6w9S6w9SGz535TdBdHXCempt7IfHb09ZT+msonRWUQte/asKw7zvtDAQCIR/A6wvvUHZjU27oerPaulj4r87sVnBHf4IDvnweFsXerjhN4ivBDmXoLC+fiaJ8uI23Ag5kFGcDzZPVc21k9Mf7VRqz6SEBbg/jvctEUFVfU6fHvvNFAGgKv6H7XdDx0yOsuQ2CDrIT/FWBtq6VA035AJIfWF5IixarW3U7M6WX/EJ1Do8WtMBeW86//H26wRYHO5i669wfeH51qy/Uupcjq+hIXr045YefzlFUzpVneB/cFQBzx7xnL5uceCNAe8Scl+ilT2pOAgEwt+huP8kalZnZxrwAUqUveXPp94dXd60lQPAllP4JtEJfFHBhWbbelZOxrKTj3bp2fpO0rNkChPSk48VlAEqAGqSglz84rS69nhjKZsTHtjn4g2t6eNWqTfpQuDykBx7T2wwkElFvkqKl+WR4tgCtv7Jni8AgNsrq1fwELKKDYDLwTdognGg3B7pf0LDHkyS8QQC4asqrjC5ZtlKwe5ogAIscGEXZ1STEvLyj+qZZ8XhhQAbvPbU9S3sngqS6+PPC533iZLKAB7gQMXs5prVnsiu2bxIsDIGoAA1rF4vtd7+00li8Uw0eQAgrFIE9BVV2mjK1ztd/fr500VByfdKRFDVWtKn6/ZaK1NYcPl6wM7EvOfl1ZBVHmjb8Y+eBloAEp9QV3NHKVRcLGBN7mHJex7ye7XSJtfBK1qx6+zQ+5ByApeqZ2Qn7qtWOTLQbrA0BcBEs5VLnen7KDAuRsv6Zk9jQ6CNi9P26MtLQ9JX9ddr0mbSXqOc+1ti9UCTIu9Etru51K5UyZmKtEiPGyGHciohKz/Q1kmSYADCvDOX7rsnFuVz1ZY4qNQPrDDu5YL7b71yKiGr7OLoeNZRV/HrlpSUl927+zyu9ak6e1IApPW2hUxfKscAnevt4bfrUWZooQCqGt3c+njPt9R5d2NO/M4f/JY8K4WO9uLtY3Y4fi5dVTneK6/+7J+ZVsGCg9XhDQNnmHCauFzDnKkBAIiQAuRg2Y5Zv+UStUpgFVtzsy9z+HExvwowRdh5nk20mBpf7Xmbs1adAeDZEn6XLLryFI9XV4zHeomTygAVTFrOOtFHqt4r6w1sQHkxFBo/RUl2dgVXoZUiaTYRCIRP8mkFLaZdxwt2U7h8hp11iXOrEyM+5zMdgRkl9MQFrIirnKST7NVpdK9FgoLaE8k1/TeLZGcxE25xkn9nH7ZiVNbdcndN9cpKSRTPZ7PU/8KTpD25bh1Y4dx/UIr7mHB77sWLdzYU1iaYXyilvXDk4BR314QR5vKh/k4vi2pvUS4X6PcddM+UOnEv0XT8yBu6VStfZLyzcFGRB65VQ41ktxGWXE4paRw3XfqygA9NdYldRSnZa0ghuyDpM0lm97dWuxOeVJkct1vZcJx83bsoS5x/OuBQq/avfnJN6m8kfPkuwaJn125PyFPcOWl82pi2ovD4gDq/vjjtRY8rcWX23WPdXROHmCsF+PcOK/7KJUXf/lHyRjpilLOUwug7nnT6Rjp25lI5BgDwK/J4Rsv2Tk0I9IjdZat0/Jzuydy6nBHD/9Uh5yGJj2bf7y3eOe38L3lNl6KSq9OO/pCstf3M3OyHUy5pps+cdv2+gEbkwa5STKoR8n1/yW1G53QK+geKb17h8B9wA6azpJu8NnFvdcfj4smrWQm3OC8mMf9cJloRV6/3hGUFDoXSiA8KQMgWO0PtwTvDSY1CIBBaYONmnRReoOB3lDuIQwHQnMdx+VxYwxa/t0WWT2et2Cx6BgwBkF0TT8GzL8tInQENzLB+75LLzKdhSPUzY/IATX1GpxY/hzBjT1CR04BxS82kAejZd9kVeXr4q9zVPTUhpT19oLbkMkXrlWYRbeJz+PZKXKBQTr2/nnKvYmVk83qoKxnpKSChrBhQBEDnQiQGV61BLFrtfrXP6HrhLKWoNtJAw7lNazcjZS4A8HMraHDZ73JVjstGftlnRU/axHjW/chlQWWt2wzQL0+uPciPiz7OaHVpQOt2TAoKnXbFJ7cJjnpr39lSmHU6tqrdAKdJ2nKAwuauSbt9arW/2v9h5BvLPkF2elwAitY72sXqhidl2dpq/T2FiGe4YFOdE1ejy7q+z30eplW5qUvMPVun626mhoDhsoFzfY4tvpnv4fbpltWroKVBip7PB41TYwAYsbnv+HZXPUNFvRzHe79xLOTT9a+t4Sroqzdr6N/x3Zwe8gwAjs5STV+5wVtsuIq5pq8UAKOJ7D+vVE26Jtq88F2JVQCTBXEaqTgIBMLXVNzIiBoYoTeHan5Y+beFbrtFN3MAWhJ2BWiAgg1zs5pwxWDB2Tbo7sSYMortoCAJdtBYFraKpIdVjbOgugxkTu0q1UKvXHnh24rqgAsnGyRXpQoAUBX09MmKkPR7JdWS44bVfIALgFXrgWSCxeQCHBYTInFVreJCUJv2RtrSpf8IQdfcgPjMuwmpv5w9P8uyR+ZwixYLm5irN1brSa94+SODFVA3JCw9pxSKJrZMSdzG2vKIKH4rpi3LixMEXAcViZHGVVNpxywBALokqECIpBu8sHpBK2lkA3+T4qIi9ICv+6mEZ1l8CAEA3fmVAA8AxYSJmqQHgafSxYixP6oI+KTiCmLz4viZnrZrPOsfzRUCCnoW1notS50W+sg3b0x+cs1TPpJWialVVfWMe7qhV4gJoaDxjVT7rZlVW0l1QiAQWqa4X0xyTacVooRpjNhpbFMOhVsiapVQ4j3mUj/f4Y14LPJ/KT72Z82ho/zztzij5RkAlMdKCboz7/mL7jyomecumjejhp7DaaF6sWR+mu665wOjh//6sUNAyeJRwy7qKSuyEOl3tk0x6mS1iTyQBwMQl354gi2r3sNGvYeNzfqkAAuv0CPdzVYrcdVlKPDrFB2iMn41ZOWa0ZPK6tqjxx+t2SOlqeomr6vNFJoFaRb1Ltmy72t8JvqPpO2V/pEyJLjg035v/uQD0316aqoAr5bttklv4kk+14ZTb+0TOmFI4wbgwa42c5+KGvqQ5frsjL/t8Vkzl43PNOPqDXXOoTDmpNS5tp/6LgQQC8FUIxUHgUBoAZ+srazaMJCIewL6o2d5XApCVNY/FC5OYOH0HLYphwKQFdu4g828G2ueByfUl9u+Evtfv+8bY2sy+k9k7z7GDenNwJ2a2JY9h6xyG47g1w97WIHIlHzoWq00UlZkAaiOK6lsVoCUOjhcCJryHzIU5YwgTuPToOTtVbjIzpV03NKlL3OE0FRpznBZlpr+dCut+tqsoyKP4pwwsSTnEzJKoahoxKQgq2jC5L8tEUoiySuX9ONSCh2VGYjPLP50s0oWoqqPTiTll2RnZzfy1jYJk4KoouFsnOjgDDg6HOipqQIAgqS0svfnaDHi8yTvtKrgaWINjBXrtXRYEIiq6suxmZp5Sc6pqA/SajXe+01oWENCgg5PVm/REi5cSg6oqnvqzPy645rUSA7Ov/z0tDc6DdVicE0/PFOSnZ2VXUUqFAKB0BLF1XKTGk1j8Bz+7VhxdkrNI6/q317XqwetGajC9kvVWTk1kvragoFqeL8UAxBGi2ecEdcXY7f9giex4qycmpcXhCFM9NGTxHt1p+B3f2FiTk1OjPhIaA0MKd2WPYeU9oKOKnjgP/N1VlxxWUJ68qlbtzenigHoqMohO/1BBQ2Ist4GrE+tbm6YclYQPEP96jfr9YST9/ZHprzMKUpIT9jqE35bTn2oBgNgde9kZJYVMTEgOT4//8m9J0sr5Ta0fz9cF8V5Edn57/6ym1xFgWtpMaUmc+SNmNclZclvAxe9LUMHc0sAUlpTzXh3nr6JFtMQFpwMSnjXaHHuYmGT9KL3g5jXJWVp2Zl3Ap+4BWXWa46o2XMq17xIia2ozOE3jPvu0tZaBioX05ubJwqKJoqCG7cSM/jvldLQVBmRCdfzagBRsd+1lQENczgswO3PuMSc/Afbru8XtNrZX/XdGZsuGgh89WtkQVZOmSQ0645rHaouuJ8/EJCTlJr36mnYtnl+J8pqar3KNg2xszBUaVlp0aRGcrDtmqgKEIWLf46l3ynxalcmDtSMu1idmFMT/UJ0fA1/yRPh+xuFoRByIP+B4tIhW+wMW40mI6cIBEKTJtYnzyhS3mc4OisF/cZXS2YHudS72IIZNJXZcbO4lViMfhS9lQsL5ps5TPufhBSEUMMfrozrJ+rMXC4qHtZ0+7MaQkAFU9YxV+lJhqKoAGM3iKrLRGCC15EK9OS0eHaFbteBr1hPVz+4aVZSDVnZ9jr6qxQoABr23a/n3B23//gILttWy3J+a4WpZc1U3OHIWYuKYsjXmWWK6gPl0/bduzevuBosroqOwXFXp4FMCgDD0PHOYNr98X3Tu9UAt9vwYfUn4771v15vVq/U8ImTjzcVr9HeCVXsG0HWv1aCK9/dvm+mfa1KsdoP6u/t87DjL6/LuLITzbXbZUqc3gxDp3ujpVbcf2H9vBIsnrqm1sIu9eZNSWkuGtImwveu+UsxtNpGzXi/yIawuKqSUuig2eyZRJTuig22r9ac1jkgejc7SN512KWoc5N6bxojx1Vu237rCOUZOe+uZ6Kv9Sh/X2PPIujoLT46xkPtfbYojBzo/eDsD4N2/yxiqnktz+3BAxTGH53GXn991awDc8sBbVWnng4H2NRXLvVcaufPrLPbRNKnqmCJX+wpj3KJ6BrNZwdxq8f+JjbeJAYPipbYq1+vVVpyF5z+4FGk4iAQCC2Aomma5MInyZ+LUnsYTf6CW4QFJ//0m0QbPXfr2onznVfNgmBXG/vUCWFPVtuQd/1ZxBFIWAHNk+9bYAQCgfB1bFwCAJXloAMg+pJ8klJxcx1QE1qs+P1nLR1/LbDa/Ncfidw2C1EelJcRuSUQCMTGJRAIBALhu4bs1kcgEAgEAlFcAoFAIBD+K3y8szH6bZCFpeW3j12OvAACgUAgEBuXQCAQCAQCUVwCgUAgEIjifimxa/dQrs8KPnWaTlti40n5lH0/uRZ/8yzl9br42wReEuRHrT9IrT9I7X0Q8JHciEdsf0Q4I2IKGq1dVRXvutlrZqb4r6ag6iginBHhjIQT/1QO5/85YsXWCxXNuTTda/8PNmsnWq9xG3szv6aJyw5PHdf4AnEEYoejjP/xW6ID7Ix/W57erPykg54N7bGR0llFmR07Xt2i8f902hKb1ZTOKkpn1XdV2r8TPlNL/P3U1kvnC/8TuStAykhkvybF7FvzXUwalbW3GKWjLv3Nwv/kBu9NCt/hgxdnWY+gHT+yPYCMjv5EFSXut0mtQsfBdEfwg27wXnz6Ii0vqGh88DIVelnpScs2f9mNTzwjbxraTEPmOHy7dYLTvfYv/yWXeq9MQg3XWTuX6r/LYZPO1lrGUs0JSmfi3FMTke51eM31L05G0W9g9IPcX3+TFee23fO1GRTva6nEllJu2SJZlO6O8A076LQltkd3fuz8q2U7bPK65R9zaM7alqGLBe3v1mAJk3ZlA8A5IbVDdCSYOw3/1gWzvnUt8R1SdLha+cBHGnyM1UzxSPZXjYoD9QFI2g2V45AC4T+uuK0G9bvw7UKvSlp6+skhI4fHw3Tks6Lm3/DvqDg6zfYvrWOg1dbx5Hf4MqXUpg3t/q8pepSi7qz9A3Ul633SUiqq9UW/s8fYb26jxKMwHSobvkZQpZHpNRhrYCzP+74y+bg43BX/jRVOvm0t8V2iNEYqyoFZRYEVXWO9ReSygblZjwlAXv8b+Ca5g8G9jIJYaJoRXfzPKm7KL/sMdmcDQPf++d6d6zXeKwJ2XZ52PD5aKGs/p23bxu1yQUl2UbmShnYzllEsiXh7oEbjyECbrtIUNDpvjUvuHBj51razJZ25ePv1wLaW2kkJNyvEZZpGV4Z2G6bAAJ2349fLS0tpAPA/R/kDYDiPn3TblAMg3f+C7vMCADB0KprYrp5ui1LCAtwfx/uWiKCoPqdfj/1migCQFWx9PNG5t1ZMYKJfhRiGtmFjbGyYFIDCuJc/PY69mVNZAKaajv72fl0nq7e03SpMmr759lEKgMyM6RMOt6rbQZ3OXrXr2nNbh7ZJr3/NqYSS/rGxPaYos5t+xr8NnpqFlj6z0cHi0+N233wLoLLNKs9lo2XqnaoOP3H1gndMal6NopFevyUjBjoqNB2BIDbk8NoHYfHliq1te5o23sKi4hKEypBv6Cqoyjw678LS+3mFaq1mTNOsf6bwyb3Zm16ejymHqobTzH6+M0xVANBp8+wO78+jAWDRLmoRIG10LGLKFDaFlKgFq+5fDs9LKweMdKYuGXy0nyYktxz127osxYUHAL7nKU/RRzYorMeLBVs6Xax1sfup6vgBwDQ3et3nakZV2FXA86nwapeGZkt2zaafq1e9pkEBHan7W9g9FRgSi+q8eFt/xrJLNagGewIjcxFH8kny6RPLBFOe0xACpji8kT3DjNmidy64OmHbcHbbhZUJf0RXlatpL944Zodj3baTVRHDLf3o3QNaX3qw9Vk+La/Qe8+Pd3vKfbyWoKMnmPtldOKFvygqdeuxLypgXkiNxvrJ2WO0AEHoUd9lpxLuJZfT8grGPRz+2NC1p7ykrohdu8c8vp1/74Jl+yNDC2k49Q7zdhIs2N0pzynNu7Nk+5Hk5+17PTW+tvB86+bVkFU5ByYemcvpGn6sqzWHQlWO98qrP/tnplWw4GB1eMPAGSYc0Lm7ux1YNGkmPb2VpDyf+pOzj+f3aPSgT9VjipSlIhMAKmkA5uZMO9N62c6ne3biS69iml8R744C2Oi9iXW3j9S1SfzByqB3c2vfdYd+AmMvyQaUwuSaZSsFu2MAgNeRur+b834lWkodcuoougDNlUQXvx3/cD+uvsc8On1jzDTVxtXuBZ/Of+Rb75iRdGf0j69eH8tr2GMZeai3XiudVU+aE0V8ej4U1e2kawsWy8pADcUFIZK98MTPEirGTXYrXTr+Pi99+OVXSQAotSULZtFrxh9Sl0LfsfSaH+k1M99JkU7f0fSaH+PsG5vINUnPnf1SKrr2TXEf88JWyuvijQW5ki5DKVHhzlSF7fPc6Pk9ZmeG2IZK+n/LykV6to43Zo3NmTPohHLBFO/H98UtXf9LyvDI2h/pJX0mfKR+EN+PzOkxagy9dPwVucypt+OKP/eMX2jehSxvxaMawzG6Vt2yR1GccHad16v5fYylGmVGzJ7Dv18U9Nnw467rP/04mntj6fFn2U2GVJ1+bOHlZM1uKy97zB9FP76RK2oYYlU0mEYNfWiiFz97T49T235tUcpRJ9Hp12F11RH94o7jjNfF44dGPvaI3WWr9vtZ1fN5AEDp7gvbQKfNXaXNwq6ldPpGOnbqlFqvcnFZub3D0TNzEwLnB0+Vuz33zJgoUcvyxGHPz3T6xnBXBTgPzk/fSKdvrJVb0ZExH2Y91XGDZAsjWWwZyfA5LmrU93lormBVEX35DDv5KHtSNN1rkeD91lEFWMZDfgCvbL9UtVfNnDeSBF+YIpiSQp8+IpV1lXNOk5o5o/q+oKVllRbjaVLO8h/LXv+cNYWzc8753/Pqda7TfJ9fArKmjct/61l2fvA8dXYTtQQlKA/uOjB8tREOPjwydELUEq2cP14GAIAos5QzcOnoiMceyRcGz0l40mtZaINMePNi1EvtXTdX8MMXPp+qLQ2Ww/g2mi9eHa1LScqlkFArqxXNltvj9eUWJVenHf0hWWv7mbnZD6dc0kyfOe36fQENSt11nBbOh9VtMFVx+UoKXGwGcagnrqYfvkZqsX9zIr+xV1w4hVXwnFtykj1fvUkLpJh2HS/YrUs9Ps1OPsqenUY7LhQ0yBauEYRvISSy+F/3Kn9Axa2z8XAZeryfDg+Yuqbnn/d8HrcwKFFeuQBc6XfWirwMG6LK4gpaMhm4Q/vhMhTA69nDovMfb08VWq9WbkErRBQYnBhraPvQTlcL0OvaZWfkuVkh6Xv66wGogcyMzlYWTApyej/oSf2eUgB7JQD6to6b6hI1oLv1sNchvgV0L/Vv0M3Wof0wBSlAql9rLTzKjYKV09d0DrfxuB82jt9g8BHN5aobfq47iC6O3Wi3tu6X3LRbi3s00b1eFnftWl7H9TN7dmIDUBs/pO+tzffvlnT+4ZNmLj/weVi+6iSvjsbKgO6wYU/fHEpuqMhlYGk3rDqTfr1Wrry53zQrZUD593lRx3+u3TtXcOdgYOywseGTzHkAdLv86hrucz4qfUx3nSYe0NrhiHXd/xOcF53Y6xFciNbqX/PrHbkzvMOKRr3tbCV9Q+AtAMB0tJTdaMG+3Jp3+YzkmiWJGHhYargZE8DxZVJ/Lheey63xqN3qio2z09gqABxYHjLCX17XnGsLhIvHRNOetznj1RkAxmznnHTir38p6tWlpT1+Dg6/2ckC0HTttnjn0TkPimePUZaUJogxbujxnpoAYG4xrMlgajiKMzrrGsqYdeaU9O2pbVmgb7QrLQW0E2QGLXznMlBaNMvUY23CM7R/70Vgau/Z3qm7HANgd+qtCAAd2y/VerHIJ3/tdHXQuZev5mPGmOZ44xVLcg5MvFxPboFXQUuDFD2fDxqnxgAwYnPf8e2ueoaKejlKqY+06/Lbw81RLudbs5ASdSCMN3qDEYBOO69HL6ls+B45LC2DZmXmUMaJPlIAYM4c2uSFReeFF2QQtpVb+1y/rJTaNVfoW01PeTfsgG0AhEBIQ4rsjvV/pbh0aXCGEP21JH1ieqptlVgNFNfKPbja/WvExHRUrPNoKaqY0xVPC4RQboGpx48vEMFYpU4xFNqocJBfXAw9RUDMkm4nGc3E4rCY4Iv4ABcQ5SVuuBF0IKM4X2JIcF3F32KNa6ajoiQjuVwmRNVfe2wlR83CQq0lUl2/H5fNUdVsskhkp6aVIHz2pof1KlydNsXAJxW3JKtIpKCtVXdeS1+JldKwwhaD0fBd5+TH1Mj2biPZ6JBjpmWGfACgC59GCeHvJX2q3sWWeqlAU4pbnOG9/tpG/8zoorrBL6Wir5z3SnrmSnpN9TboM9ZZUoO9hUtb1bUjo2vKgAHmkp+UOUMOeJBSp7hy0K1zM6pIAQIaQFVMDWh4Ogs86zvHclpaVikmdFUlnmFKvrU2hcgiQKK4NMXp2r7ZpYliSXMocFg8KRaPC4AjR4v41QAbRf73fvzl5fmYconFpmhWARrvRo0Z6/eRa9iwptRdx2kt8gkOnz7A5vWrrQUNNnL+NOLinWfnVogxTdOsLt8EsXlx/ExP2zX1swu5QkAKmq3ntrk5/lwi1pnlXgt9YmUV1poFQErLzFyrhdnZvWNzLYSQ4Brkw9amnrJTSC2m8a6VT3EAMWqILP7f2bjg0Uy879Nk8VquRCw1WQ6yK7OB2iJdWlENFltR5oNGnEgsEH2rx6FZ9aMTAwCdt9v7/nrtjoE/WTrISKEq3nX3U0r0LyxBdMhy7S7bshpNsGEb+pUlDvpMt/RH+3GbeJXybhc9+up/SeLY9DszjP3BAmdMDvilTbYlGlyNzXNot+ZbqKIXnqd/iND3vjJ+uIk8jy783XnvnI/LRsvfuujIGLkZFxrPbbJfHxa0+t2v/nNYWCp8OP2vWS0c+LzgDflqheb9+Fs+1WgsLkvur+9xmfJy6NyA8CXjYt1MTDkU7lymFpZXNjQgPxzhpj7Srsvep39G9aZOR+R2cpqs1jwlc3J5PbV4wGSf/v1mP3zXIa3e+hMd8zLDJ5tgU/j1FSqpV7MxdnitufnE1bTb6fjG13rcoXf2/Wz8sp/LrpL6P9qg8hTvk6P7RKUAh+wn9/+nuJS8lQ4DCcWAOgCUFEcUNaqVBNnZRTU8jVYKn/84TXRUEZ0bUk3bsilAFJmcB0WT9kwKNADx8/RiWGoCQF5BECUzUUXqU1VDk3B1VVjILsiCthYAlEQUCKCv2NR46PLCgErOjM5WDjJMAMjLDRahY4M3w4RIXPV3ZPdfm7/bYq/yl8WiqafJfvTmVUVffZmPXiDFBqor6xcTBS0NVnFmPh+6MgCQF1fWqB+Xp4XiWNTUG8ygoWrDq7ibJkRtB15qUawkduX2xgw8TCpwU1dpZoLp0oCQCkzqMcFEHgD4BcEZ7xLH4nKQWiIEeABKc6pq/6l/FgLhx7/Whq3Cz3qVATAdWJs5wsW3696yBUMOuBFTM8eeAYCOqSkDejY59pVnzkA1vN+IhrT9RHVRlZNdwlbQVGrWQG1ajPi8WMAMQFVucBIDbkpfuUS/Snoia3x6hokpKAC5cXmgmpE0zdZzrW6OPxMgvFNhsLV18140E/0t2naVv/ZDgs0C3wt3x42WY3DM1MxLIk5FiYZ8rBuY08d+6vKzRw5yItPVdg6VmNF/yav8YWXEAQR1P7LpeAp2AIDWHRg4Ib4noD85UEsQC4Ym2MSl/A35Pteckhk+zgQ3n+5OrwYEr3Y/vdVIFCIPDdJrpb2xWSOnFNpYzmHkzPAJf5KTFx4RsDyuWqeT1fs1o8MDtyUWpuWnH7rzNk7X7If3nbg8XQUK0cnhAqFA9FkrhNXdxsgs6dWc0LTU4uKgJ09/zpVdYN2km5SrYMURnEjJ4wOoyv3zfmyO9MMfAAAgAElEQVRso/NaKrZlWUeicnPKK4u/le37Rc/4SfNHzcLCpiG2FhbanK/73cqZDh+uHLHr5IU7GXkZpckv429u9roTWc9CMdXmZcbffpRbnFdaIQAAbqf2tqo5t8+nCmkIUsKuP23cfJHtAToF/HoyzDOc2Vcm9fDzVwIaVTkHDr9594xDf7K3fHDHdm9YcFpR6psk32O+zieTmmwiyFiasPEsPhYAKgK33T1WWhcRpdzXkoGbEbEAihPXe6U1vFG5c2s2zgU+TivNLKmqn2ZDU3lExZxMr+Tz616Wkp65TWNa6zdWvlk/MKMi6n4YMHZo4/om4ZVYccor8ZRtQlhhrHqT9YAN808L6vxC4f4nwqSUmvDHoo0/8k+Uvnc+vlncT8u4+/K4ZjfdwgIGnoxLSs1+sM7/GFvvQM+vveWwmZp5Sc7p0AoA4pjQBUfSm1vtTDbBqXv7KaOtPWS/yG6xXj5yFSd2zNKwdADWHdc6VF1wP38gICcpNe/V07Bt8/xOlNXUK2Pcq3texjm2f2dGS2mZffAeLdtotHCmWesODITTF0prAPj9LkRduWs1Rmo0jcFz+FdixUkpNQ8vVI9fzm9Q7ZTHQboXWYfwv2vjVkWMsDh7RfKd3lTVuQmmwoArC6/bsTijRz5LOz916LZlFNegp+lQ9RyflsuK4fYJXcU3QrodegFZ+YGOfYPeT8Zl9m6v9/amj16BEAZmV4baGdYzFfr2cJrlG2S7Lfj9zJmq+B+23/WWSEmA0vqAd7NxGKaOdwbT0x77618TQVF92iiXLa2a9KlKaa4YYR3ve4P3nKnEVRjvYDkh822DC7TaneiZN/LaZU0+YD+A7t9Ud138zbOmL+uWwDryxx/4cPLSx52uH3nGf5ayu2fcl0aLxACksHH7xI2g1M08b7kaMWG+YI674tULe07ezBJKKcrr27UdXK+njbLrO31MztHl++/yBYazf1r/oxbYOlO3Dz689ty8k7SMpoFdB/XE1IavoB9kj6PoGaS7vPscHLa4HfG42MX+Wbm84mgXE7NwyVhOyqH/05Ps2Ztu2+8qB0dGydbA3b1py4zTb8uohe6+5u0eqclzjft3WtQ6Z1fdKZflQyfP8jNv90jN2GDnMGN4NbzRc9jsmb7dHQMgrbctZPrSuh5Hedf++x5emN918yJh82YH1aE8RmrMXvH5upp31hFOwSLBiPHVoABr3N/F0flcCG7HOZw1gnEeIghFkIetI3X8fYtKUFzMh7SJpULz2lgUEwNtxvj5GK0thpHR4gMjZjftv/1ULWH76Vssul5ZkfPDjN0UxVXT1dkxs/WZfc0agMvpYz+V9/aYs82QL20v8lqt29v91rAbZj56lUPVxh+dxl5/fdWsA3PLAW1Vp54OB94bjiyH8W30LwamDG2t8m2+oVZuUgcf1IzpJYAiXMczTF7UvXhFyvsMR2dl3atXw9BRjPdpEAWgXAydAUQUv60D96M70v9f7B1EZy7efv3NCLd/Xma+LNnxiJsPlRMfWXPq65I5DlX9YDz5v1z8K48g9SVMDpG+q79QICM9TbqsG+FTuaNbM4wywdUJ24abjmt+c+FvJTvMpdstqbMLr9lxv10kAr/z3DX8Yy8mTvmu/LeFc1HYDiazSIn+79q4hBaT5YYcA5h9G6moOorE86Bp/OeX1JOeCA0aQj5YXFKmWkji0yeV9juXdOH9ux9DVJJT/HzdgzsG7cK+ndzy+WU5Gdv2voXLuHHfV3epALQNdCaS4kwUl9DIK2ECs5vfNgreNFhN+//ITQ6UZpAy9ZcwnnUv699vGL3wNx75rMDQaPPBPt9uUcyU/UcM9uSha/trK0x539uHoEI+hL+l/v7/9SoTCARCE9C5l1YG3P+YLao3os+y9rIkhwhEcQkEAoFA+B4hI8EJBAKBQCCKSyAQCAQCUVwCgUAgEAhEcQkEAoFAIIr7byfqLrXj9jWSDwQCgUAgiksgEAgEwvfGPzo7iC6eZ3f0+ZR+He8+PRhTBl3z3QdHLjDhAEBK1IJV9y+H56WVA0Y6U5cMPtpPE6g4PnDnUjk91cjk6LYOh83Tl53IKBo6NG2PnQ4ACEKP+rofjXmWJYSR/uRVQ473rL/DpaAku6hcSaN5K+yLUsIC3B/H+5aIICvtaGrnPbi1IYDXt6mrDdev12obNaOzJKdiH1KXKk6N0blz69XJAj6UdI5M6z9NmmzEQSAQCITvwsYVh/qm9jnqTr9adFo9eeHmupXji8vK7R2OnpmbEDg/eKrc7blnxkSJAFAQ5ytZXfV27vYyYGZVpxfnutneeno8XQwgZf+J9ofKXDZOSQicHzxV+vac0ysS6m1mEnmot14rnVXN2m4IRW9n3kykuvZLXvRD2oTu7uosyV507VzoNT/So0zAM/Rb8yO95kf6ndzWIsz+4XH+gNGj+SsmJfRvbUWTAkYgEAiE70VxgXE9RqqxwVUYMdwAURlhtQetHY642/dto26kodp+gvMio9ILwYUAaDDhaGDe1qibMgs9TU3tzRx5FYG5NOikHUfyDDaMXt1L20hDtb3r4F2ti7fczGhhkorKAsWyfUw09WWldTR1xzmYNdveZ07s3WWsOo/D4hiZGHSSIQYugUAgECT84+sqM6ErWXmKw2Ghml8psXEzvNdf2+ifGV1UZ6eW1u0JyuUCfGU21DgAwONSZQIaKdlvivjJ07Y1kDjT8vf/W7kHV7s3N1G6pjvU3s46ePaKgaajgc5oK1PrZmqnlLKzNpuUKgKBQCB8h4qLj+37KnrhefqHCH3vK+OHm8jz6MLfnffO+Vw45QyF0XcWnm/9NZ5ISm3mjxP7JKc+S0i/8fyxzbOkS3OcRzSrA5gpTcoUgUAgED7GdzlWmS4NCKnAuB4TTOR5APgFwRmiz9yioemoUFHref4Eguzs7MyS5vesso0MTCb27nFmZtcJlRmnMmsaNglE1WLSSUsgEAiEf7viUjKWJmw8i48FgIrAbXePlX5O3niGS6ZrYctZ16vJiTlFsS/feq3zXvxc+P6CyEOD9Fppb2zeyKm0yMUBsUEFpbnlxUHhSZcZCk4q9QxcJUVbYeHZhBKBSEQKEIFAIBCayfe5Py6n35ZRC919zds9UpPnGvfvtKh1zq7P3aM/d3II19d9+ynjLD5UFFq3t1iu29L2BJcpehva92lZKZ+Gqvqckb0Xy9cLSsvqt47ZU66e5fIbzg4iEAgEAqEJc5Ls1kcgEAgEwt8AWXOKQCAQCASiuAQCgUAgEMUlEAgEAoFAFJdAIBAIBKK4BAKBQCAQxSUQCAQCgUAUl0AgEAgEorgtgE6bZ+upf7vq64ccHWBn/NvydDF5wQQCgUAgivufgy7c1XcddST335PiksMHj1LPi8irIxAIBKK4BAKBQCD8R/jn11WWT4lZOfru5uAyGJvvPjhygQmn9njhk3uzN708H1MOVQ2nmf18Z5iqAKBzvT38dj3KDC0UQFWjm1sf7/mWOrU3VGUenXdh6f28QrVWM6Zp1o+iMujZ+KUPfFNpdGu/VzpifknnfO/OKnTaPLujfluXpbjwAMD3POUp8gmdMARAStSCVfcvh+ellQNGOlOXDD7a712AJb8P2jPHccjF8peLLmWkUizMG0vPk1vd6cDGDBoAPH+jPAGKqea1PLcHD4AoJXLNSv8tQflgyBi6dD+93bFT3cZ/sWv3mMe38+9dsGx/ZGghDafeYd7dbIDKoBdzVz84EVsOjgzP1urkb4NGqb1vG1UX5xTy2QqaSrzm5G9ZxkGfp6tTi/LB5qmqre7n/LMeB3Tejl8vL63dH8L/HOUPgOE8ftJtUw4AVMW77n4qO6izYVjIzxnFYMlMHj7yuCnZh5BAIBD+3YorjvAKHbRuXIpa+a8eZxduDp94zEEFoF/ccZwRafDz0MhemlLJkUt+Oquq8CM9Rg38ijye0bK9/ToYS4tjI5f8dE5XYQ7tpg6IXvzsPT1O+8i1iX1rUj3nXQ2jlJ1rYyh+O32Kv+/IIZEzDKse3x65qhROn0tUcVm5vcPRZfrGaoyiu3eHzj0zxm9+vZ13xTj/cPW8QXffGBgU5V5JZIHS2PBiwwa6cJfzXo+xs+np6vWCip05/MrxQc5P1pro8XMPr7jkuEwmf4+1yrsL3rwYJd/d5+bQTpzKsOACaQB01pb5N0/0GBLkZapfXBweklbaMHWPpnV09jfbnn57ifxnXRSigFt3ZwsNb80aZMsUZqSnvUENAFBqSxbMWoKSwwcvzrIeQTsqNb6PFh5++HpJP+ciI3lRfkYIxSKfCoFAIPzrbVyM7bOllw6ALW6Gu/ZlhAF9ILhzMDB22NjwSeY8ALpdfnUN9zkflT6muw7PcMEmQ8mNGl3W9X3u8zCtyk2dV5X067Vy5c39plkpA8q/z4s6/nO+xCK8FnSGY3Z2pW1rDgXXwVsvvx3/2SRZOxyxrvt/gvOiE3s9ggvRup6Otul4Z4apDgBN7TGaTYVUevHJcVXbsPUdbQBAeeMqu01TQ3yr201h123/x9Tes71TdzkGwO7UWxEA+OUJBTScTO3V5aAu52ym+xcyV5hbIYKqbncVGS6grqho27zbKJEYbbtvN1MGAE19F/KhEAgEwr9fcZnQVa39jy3PQzW/EgBd+DRKCH8v6VP1LrTUSwV0UBF6wNf9VMKzLD5qd7/tzq8EeDn5MTWyvdvI117LMdMyg0Rxk+OKoN3WVuLIlbE0kUX6Z23cDO/11zb6Z0YX1Y12LhU1SHMbHZ3mPV5YcC6ikmx1nr8/xGuVWkJDrU5xjfX7yDU0VXl67qNUzyzaZ3TZoHd73YEDbIeZyNQ/3/dSCt3c7OX1aK9v6ndXOUtzoo5qFwvz0UbK3GbcRrPYww2UyOdBIBAI/ykbV49LfVyJN9e6ixsguODTfm/+5APTfXpqqgCvlu22+ah8cr48HdQ7TRW98Dz9Q4S+95Xxw03keXTh78575zS6WE7qC0J2Hlx5zOGTfa4c1genOJ22zi+dEn8jIPbmlafDf30+8ML8a3bclmWvYts+EYa5AfGZ92Lil5yKmNZ3cLWjZjNygyFDHMkEAoHwVfkuxypTyu2NGXiYVPDBmejgDDg6HOipqQIAgqS0MskJDVUbXsWLNKHkZ2pRbN0tBqZKyMgJE9SahRVv48vftTa4HKSWSG4pzambFkyXBoRUYFyPCSbyPAD8guAMUXMtSgBocLFFB3VEpdwT0F+aB3LmJmOnDDjhM/OAUeX12zn1T1UX52RnFzV/FjNbVr2Hjc2GsaPu2coJo7OSGp8ns5YJBALh/1ZxwRn6k73lgzu2e8OC04pS3yT5HvN1PpkEwNBUGZEJ1/NqAFGx37WVAdV1Wmc4s69M6uHnrwQ0qnIOHH7zXm8G2Y0XxI7b9CYqrSjE2295qPidrve1ZOBmRCyA4sT1Xml1x2UsTdh4Fh8LABWB2+4eK22eXlIyRjoUHkS/KBXy+RLd1RjVdaogavBPD67GFSalZj++9Nht9cvYpsOpStqz6snZiNysnLL4py/PpDDQWrn++UfTOmqZjdlXWtOMNFXdvfvscGJuSnllfnaCd2o5VBW16rUQdBUoRCeHC4QCkYh8DAQCgfBN+U5dh5RD/6cn2bM33bbfVQ6OjJKtgbu7EgB512GXos5N6r1pjBxXuW37rSOUZ0jMP5bDFrcjHhe72D8rl1cc7WJiFl5nISu2PXI8r2Kpr5WXEN0d9vaXn18i0XWX5UMnz/Izb/dIzdhg5zBjeEmO99syaqG7r3m7R2ryXOP+nRa1ztnVvIZCn+WDJrvf6dT6/vvZQYpmh66O1ljpP3Xg/SKKA2PNEWP7qHwuHLmsKM9JD2NqZ0DNH5U2VK6lGclUQOl5v2uzSqrB5bUz7fDc2aCee5rdt4fTLN8g223BDWYHEQgEAuFbSBtNf8SAi34bZGFp+e1jl/v7H/jVst026R3zvTurkJdPIBAIhL8RsuYUgUAgEAhEcQkEAoFA+K/wf+dVJhAIBAKB2LgEAoFAIPxn+fhYZZFYmhigBAKBQCAQG5dAIBAIBKK4BAKBQCAQiOISCAQCgUAUl0AgEAgEorgEAoFAIBCI4hIIBAKBQBSXQCAQCAQCUVwCgUAgEIjiEggEAoFAFJdAIBAIBAJRXAKBQCAQiOISCAQCgUAUl0AgEAgEAlFcAoFAIBCI4hIIBAKBQCCKSyAQCAQCUVwCgUAgEIjiEggEAoFA+CqwPn6UWQmUffvY5cgLIBAIBAKxcQkEAoFAIBDFJRAIBAKBKG5zodPm2Xrq3676P8jnkt8HraOOZH6NTItHbH9EOCNiCkT/hkdPHoQIZ0QMQDn9naRI7D937UTrtROtV3hsjP9KYeb/OWLF1gsV3yjFiQf2TXPzL6n55AVhGzfNXhj6ZYEKkDIS2a/f/c45cpRyvh7+lT7tJTae1PnC76so0mlLbFZTOqsonVWUTxkIzaHKC9Hz/h1VDVHc/yMeX6FMftuQLv7Eaa5177ZLjaWbH96rZTuoqS8KPnVaywttjjfohT/yw+VhR6roxASHtnd86u6LukttuLi3sk7q8t50W39iYpr46z/+q1/8tafHAlVLe152v90gAoNrsFgEivpWOR+2cetEm1oFXf+jy4E/TidWfkbamX33r/N6tW5aL6kvq69TXv7ceat/ykdPyph0trYzlvqnip+ajaVdF5UvuqXSC5WqUG33f/SRUro7wjfQabMWq7K+7MbicBfDHWOivqXs0C/DdTs+eS6C78KrnTyz6p8quhoo1eVZlPifiZ03Brx05L4kdfxXgUWy4G+B47RwhBPJhm9UXVCG7Vbs7C7PqM59/uzEbyd+l/LwGK3w96aB19lj7D+YBTqDRsz4QgO34Dpk5pEKgPDZugvK7ZH+JzTswSS58e9XXPmUmJWj724OLoOx+e6DIxeYcGqPFz65N3vTy/Mx5VDVcJrZz3eGqaQJXxUx3NKP3j2g9aUHW5/l0/IKvff8eLenHFByY90lj4sp0RUs2Jgf3j50Rl1QopTINSv9twTlgyFj6NL99HbHThwKALITdi6+tjkor4jiwFhn9cbx6+2471PGL8kurmIraihz/4p9VnFi4LYpr2oAwHMOPb1VvVN1CS4HtFXtZw4LctMF8GLBlk4Xa92Tfqo6fgAwzY1eZ/bVc74w7uWC+2+9ciohq+zi6HjWUVdRksPxrrufyg7qbBgW8nNGMVgyk4ePPG4qDZTfu/XA43X2KxETWvrHB3adrM7+PooxW0HVUFWVgVaGQ5wfvL78IFo4ykGKAspyb2zx83+SmV9FtbKz/GHDyLYaTQdUHb7vytW7aakZpZCSM3Xu6rqskx4PdNy9hRMeF1QDwMkha08CkNL0CJxtwwJQfHrc7ptvAVS2WeW5bLRMvcDKHv5y3udGbeytx64aYacHAHTo9Xlz0rr/pB11KiI1V6zetfdPOx21GABAZyV6bbrxLChXSHMUTTQGr5re06quWVEtijpx+sqJhHwR22rGKPfJxlIUAERs37ntdBnoGk7P4Uf22L1T1BszNj+W66yTHxmdWEWpq4/Y4NbT6v3bEoWgnI9W7Rs/f03Fo/XHhp1KTOGpOM4b5jfDUAUABKFHfZedSriXXE7LKxj3cPhjQ9ee8lT9j+tgUH4RQ4bZyersjkGj1Bp6zqpyDkw8MpfTNfxYV2vOpz+lV/7aI9/2naTy+mZSWDlTp3/va+vtreu+0x2rrm15nFfEkJFx6exXF3vu/kMaV3jLzMu8AgszGbId5w976GbIA0CnzbM76rd1WYoLDwB8z1OeIp/QCUOaarXlenv47XqUGVoogKpGN7c+3vMtdQCkvOze3edxrXHr7EkBkNbbFjJ9qRyj5RVL80k+89h0WaGoBgCs9K8CtJKjWfJ5q9rMT/aPXLEz+V58NUNZbtSCNjsnaNbG7v978O7L+cGJ/CppnouLwdb15ibSoPMz+nd/K2PPCH5R6TCzneWLNzvCMX1719+GyH++Odkb2IDyYigoEsn8i/zjXmVxhFdozexxKb7jFzFiF24Or/WH0i/uOM54XTx+aORjj9hdtmq/n1U9n1fv8+D7/BKQNW1c/lvPsvOD56mzAcT84jXwimjcoTlJDyeeVkqf+YPPNQENAMWxM4df2WLk9OT6opQLwyckPnBc9roAAESPPM8vqTQ8dn1ptv+PL+ZaqNMNvEZlp2YYaplbPf2LriSZydfX0+lLDtg09jgKLlwfeEU09sScrMAFsVu7DKurwhz2/Eynbwx3VYDz4Pz0jXT6xmbJrYKqjK4CwOEYteJyOJ/P97QXPa7Eldl3j3V3TRxirhTg3zusuF4OCw8/fF3o6Fy0dHqeW7dx8iwA8f43+7wRjx81MmVO/9O8nCnej++L6/y3XBUZI3UWAE0tWXVui5vCT1xNqQ9Z7N/M22uK3rwKTaClOLXSUn5j0R938w0nHpq/68KMPmppu2ffyq5pOgR+MZ/XbdHojVcWbT0+VD3u1k7PCCENyrT3npfrTvoO0pHlufmu83q1ziu4Vm4BKE44u87r1fw+xlKNnNkRe46efIAhv87edWGiEzdm3+zL7/35otTQV7oLr/38u89QpVe+Z67VtrBEj7Z7BQgsFl5auuvqjOmTTOoVGUqYEPYwy2LuifnuM1vFHLz6MFVyos3SxV7h6xaN5kp9IGYZjyONls7d93TFomGMk/PORlTWb1mgRgGcDxwBMZELCttcvOcRsdqweMtZ54e1nZ2izFLOwKWjIx57JF8YPCfhSa9loZJ+i+K3s4ad3SLV7tj1Rdl3ptxyQFxeTSO5Pd4cua1tN/Fz/0w0PPdgJf3YdWzgDZtfkmobpsfnnlpaaHjs+qKUC/0nhd/vtSw0/X2CE7bZDI4PWS0+YsPZdLbfc34LSx6/Io9ntGzv1IRAj9hdtkrHz+mezAUAfftHyRvpiFHOUgqj73jS6Rvp2Jm1cvvFFUvkwa5SzMZlW77vL7m1OcbmmepwOICiqoyeuqRsGYzvJkwdVrhPk2WgFpkyjE4fXnhBIrdFT8JdlmQazej49MHAOzt043e/WHJHAAAQlpRIuS23f/bAJeJsB+OEtyNXpQokRbNcpU9Hv6VK9/a8rpra++FC2XPHEtM+Hft7u8wKHAqlEUQv/xNe5bF9tvTSAbDFzXDXvowwoA8Edw4Gxg4bGz7JnAdAt8uvruE+56PSx3TXqa19IMa4ocd7agKAucUwAHTWHxdyMG/2WicNAAa/9PrT5srch4MHufBKLz45rmobtr6jDQAob1xlt2lqiG91uylsQVaeEGYmLqbyPEBDT63j3/vc2amFUNNzbq+hCWhqKK34i8GN3uMyGgB0ztzWadB4z3ffecj9/W+uPgBU+z+MfGPZJ8hOjwtA0XpHu1jd8KQsW1ut2hwWidG2+3YzZQDQ1HcBQOedjixEl5HLjJQB6A1sf+23x9sSq3uZcgDAfLLTEwDAotPOf+EhOu28Hr2ksuFQOg5Ly6Dpuyg65slC2yd1TRxlt2lWUhTo0EfXo1Un+fayUwKAPot6Bw73exrVb1SbpjwuPRa/s4QUh08wfvZ7ZHZNG90WNCGqk+/fzTWbMaWnnQKgOsSjT+BYvwdhI9w6SCLqPdtGgQJatXVox/YLzsIQE0BQXChWbGNqoSsLyCpqqzdsurUasdxOnwl9na5tTv+eEF3dV79pD4NYtmuPvlZsAIbjerXxOvrgSXUbF8ktgmRAHh+KtLz+vg0dOsgxoNt/9/XX/U7GFvRorwKZQQvf5YrSolmmHmsTnqH9ECDX+/ExtqXfwZ6DOBQAjdlD+tQLTLEk58DEy82UWwBitsyA+R1NORQ4eqtn6P2yL/zuCqM+yVH7wqQHXBwwzJQFKO9fGXdgbsi5PFuPWkta1fismy4PgHXXlU5P+nnFVDla81rSK2C4YJOh5H+NLuv6Pvd5mFblpt5EUF9csViN937jWMhv0C6r4SroqzMAgLI2v38ZALCyb7dmJPjSoSQtty4bR6kBgJ6554jEkRdSdzibciipUcut3z3W8kmau3/LTKjRswTA4nbpKdu2TE1HrrKXI9deSUXxVGleDXQZn4tdAUwWxGlEL/8DisuErqqkhSvPQzW/EgBd+DRKCH8v6VP1LrTUSwVqtYSmOF3bqzVsohYkZDFsTJTqSoiGvUbN7bQigBcWnIuoJFud5/W+rlapJTTUZPqNM1daek46xmCSlVbHAbZTnDTqf2By089XTf+GT64/qKPLcb/OXTMGdtLp7GTpNsBYm/MNhhdRyotde0ySZgBgFcW4XogDALokqECIpBu8sHpXKmlkA7WKS7PYww2UGuZwSUwFo49m3aIlssrmMjWn88tgyvmKiZXSMjPX+uK7aMrQeslOJ7nCgnv777AmTe3bhg0gNy6zpCxzb4+19a4Utir9TFjpd26ePhoZHVsmrAEASt1M2KInoQuK8qu4lkYSK5LS19KSr8pKqkAHGQBgyShIij2kOYxKQW0jQ6bDUNMbG08tCjWwaKdt2a+tg40KW1IkaClNHZXa/9lcaTajVPB5/5VCK2WJprIVtVTo6IyCuvcLCAE2PixurVRtaw04cCzaKON2dhqgAhT53/vxl5fnY8pRmxuKZhWgAfHbN7mwsun98XIrLt55dm6FGNM0zZpXsIUMhV66Eq+bgp4SCvJiymr6xGaFMhX2mdZ548x02ovj76fVSBRXTcVcEjjLUE8eoflpQIs6YCpCD/i6n0p4lsWXPGN3fiXQhOJ+ecWioGdhrfeVvpSSlwnUo4fPqF3vS5xi+6pSGmoUYq5Frtubdjeen1dbSDTV62SeyeUAAiaXYnC5AJvJE1YLmhcfgwmhAIT/gI2r9/FeUiY2z6Hd1D+VbLkPv2Hq08/iPLjymMOHH4/i6LE5XTMe3E94cP/NXNfnc1dMo2fo/X1Pbt7xVvX+mDAAACAASURBVLB50L2YwGdvD64+scJ3QNpxJ51v0HGgp6nWRpoCAGbW+15Gion+I2l7pU/oNEOG9bGX8o154mra7fQHE3Y87tA7+zbtj5TXMtRUNdacujJ/5RyvIMt5HTUB0Gyd1ut8xjbfQqXj7v3qGa67aNzuQYYKXJRd93LfCeHf+DHojJi4t1Pmm5cprx+EnJp2P+hnd4/REmWm2PRfGAktElY36B1hyAAZqGlet1LKy6FzA8KXjIt1MzHlULhzmVpYXtmcWJ1cXk8tHjDZp3+/2Q8dZZtzR/n7Fh4N4KOzrej6tRYt/nxKqM93DAku+LTfmz/5wHSfnpoqwKtlu23Sm5HcL6pYIg92tZn7VNTQ6y7XZ2f8bQ/1lvTuiSbtHnxidOMGLx0d67Y4xXqVfcRINXUeim4Eqq2t/qvlUgCxEEw1opdfoTr+HhNFKbc3ZuBhUkHzb+EqGGtWh8cX1bUAc17mMPR0lQBYdFBHVMo9wcdnjEhpajtP6LblyNzwMYq4nRTb0KrLzs5u5AX6ynAVOg7s6L55UtQuazyLvlpNN2gMCb7ZbARKoaMyA/GZxV+QVFlzGeHd7LpZjOWFMRUMB9WvvE5np53Xo8MaEfVmSZdmP5ep00C74nMHooU0FE21efnp0U1VnJSwuoGeFkVk5ssZDR9uqMAFgMy4AlH9N8IGwBA2r/qiVJRUefyUxBJJPZiSlVXK09KW+eyNnFatOgx1nLpn3rSB3KgHCcKWFz86PylNMlGqLC+rQEpN+/30IV47IB/VHwSemR9WVisJguiIQhhrmgN4lfRE1vjQDBNTDgUgNy6vzjhmWbZt4uNior9F267O137gPlrge6Gs5rMJZosL7sdLsjc3Lg8qqnZyDJhp2YlLbsTV3R6bFcqUeWcK109wVFwpdFV1AYDF5SC1RPJuS3MazfhncTmAoMGbjw7OgKPDgZ6atSPFktIazdZlUhBVNOwj/uKKxWq895vQRoU7JOjw5ObJLdWwIlKwN2aFPc/5MPact3lhKgoLxqvVesRjo8r++pQ1Og3VYnBNiV7+RxUXnKE/2Vs+uGO7Nyw4rSj1TZLvMV/nk0lNlkfdGaM1sO/auoCcnNT0Mx73b2uYb+/BBaAxqutUQdTgnx5cjStMSs1+fOmx2+qXsQBQ4bf7+sH7GYm5ZXkxkV6BJTBR060X5JePnBK/jssKi8is/QuJK2y6xZB48dbqK9GRaaU5qemnr6ZBX9WO/d5wNzSVR1TMyfRKPv9b6C7buYuFTdKL3g9iXpeUpWVn3gl84hbU5AIdlOYEK2U8ffpbYmFqcc6Z6yGnpfXW6H3lscpSWmbmNo2wbKPxBR1zUh3G2vLvXHuWCo6dk3ObikvLLrwIy8vLyIl7EO617GpMvUmNeqaq5YEvXsSXF+dV1tbzMvrK0iWZbxKrAZTHBl3wLUK9Go2SVVTllbx+mlYhaIbssg269laO/ePig9DivKRM3113c1TadHFo+p7SR7/deBKYkZdXkRsT9eJ1mbqhplTLOxoYgqDnf17LyMsoeLjrdixl0LPj+7cl5Qi2GGVxH6QgZd7q4OC0oohrtxY+krIba8YDYKZmXpJzOrQCgDgmdMGR940YddduUwVRgxc8uRNXmJOa/eS0/2+RjYory3r5yFWc2DFLwz5rNDKEgsebbpyOL0wLCpx1NB1DbPoAMGg9z7LyxsYbV+MKU99EzN30Gl3bj303HLouwZEX/dwDpXqPNuIBoJT7WjJwMyIWQHHieq+0Rg36zq3ZOBf4OK00s6SqSvK5KSMy4XpeDSAq9ru2MqDhC1ZQNFEU3LiVmMEXvVPvL69YFPQsrBsVbjsLw8/PolbUljXKLb4RXMXnvy++I2cZ8K+9mvd7elxKVUpk4aUjL1eeLgSgoK1gWFzxLFYMoPht6pZzFX/dZhCGQsiBPFHc/4RX+ePVu0P/pyfZszfdtt9VDo6Mkq2Bu7vSZ3y0HhOv51/6cdYBz3LAxuLXYyPG1nqeFc0OXR2tsdJ/6sD7RRQHxpojxvZRAQCWCl24dtXx2Vl8cGSMXXoFrrDk/YU0M/gFFycevPjut7TR3ogp8wKvMieESNrn4Qf+x959hkVxtWEAfoaFLfQiTXovNoqIoNh7iR0LNuyxxW5iFI0ajSVqYjQ2xAYqduzdWMAOKqAiVRDpHXaX3WW+HywCFiCo0eR778sfstPPzJz3lJk5zBJA0zYocsRQMHy+LPSPU8vn50HKg7v9tj+7Vn1hV92n+x/XDk3zWjFL8lneDlKw8Lw8SGnBlTvNwkqgKNAzMJzZupbXBKzbd78kvjr78JHvRCyMzQN82vXgMV/dpcNzadXKPPSk/7NWP9n3WT9J6deTB6ZvyRKWaRroW3l66FTZYcsR3n2eB+30XlMiYzv7Lx3ZHDyX7pO/zd/97dqzHL6yoUXPPtZxx6u2ANoMntF882+7Jv0mhaL87aDCS/unz3smlQFQwvLVI5aD0bNdcs7HkgPnmb4jRcdPfLd+p5Cr28hm4p99LWtp31YUlGSeWLon4LUQAjWbLt9Mn2pWS+Xjdfji/scT5A2rJ0Y0OwGoDD08r4cNABj19OId2T/fr4RrYTRk05DGWlVLqNCyQO456Fe/ruwa/aYc0aVjSK5Ap8WSIWfaqQGAvdexBenDx69nGL6uifGaCY77/6ioIGo6lN9cQ3pekL8d1PmdQryg4U8b257re8b2hGlJn5paJkX8huN7Sdf1+81Hwjfu0ztidvmjTBq+/sOz55wa0/NuroKKTrs2V1a3MP7ADp9sX97owuv6fZ/RE0/aNf1L18p8bV8r7K12iXRb0vfbCSFtPULfvOqj7tP3SPTBUR1/9lbjazdx/aW/9vj0agX6BcucH/kFGW+WVr4d9E9lLGDcHNcOzp435vyigsq3g7S8nM5v4i/YGNnqV6GCCq+Jg5bPLBUAghaNt08rmT/s7AYlrpaF7pRRBqd2f2yrcv4l8LpDwIB8fGhj2feUgJ49vWvv4PD5t05jB9WjhScWL6ZBZxd09P81+yw9h+cbYXYKqnTT/kPEZ8Yvv+06eemkDz6IJnuA2OVouB9q/K9ijx9dNBiYMOuh/FXXusjYtFX/nEn4yR5OdL4/H1kk4hbAYA/U6WXc/24dl9Ti9Uikm8N267/gBCZ9g0JxeSco+YpwXGE0FLKX9Xy2l/yfkGZCez6FW4q4/7etEtawPftv2mGzEDppXylVb0oDUgtee/AoFT5d/k2tyoSQfwKbceTH0Cvv61gw7d9pvqsqpRChiEsRlxBCCPlsEZcQQgghnxaNj0sIIYRQxCWEEEIo4hJCCCGEIi4hhBBCEZcQQgihiEsIIYQQiriEEEIIRVxCCCGEUMQlhBBCKOISQgghFHEJIYQQQhGXEEIIoYhLCCGEEIq4hBBCCEVcQgghhCIuIYQQQijiEkIIIRRxCSGEEIq4hBBCCKGISwghhFDEJYQQQghFXEIIIYQiLiGEEEIRlxBCCCEUcQkhhBCKuIQQQgihiEsIIYRQxCWEEEIo4hJCCCGEIi4hhBBCEZcQQgghFHEJIYQQiriEEEIIRVxCCCGEUMQlhBBCKOISQgghFHEJIYQQQhGXEEIIoYhLCCGEEIq4hBBCyL8w4ubsKWWchIyTkGkrvPSfTx7hXjybCOlXuW+ZT1qtCF5bUFbjPPfbLt3CLN3CLKttzs9CenzYUmZxzLu/n/ddyhgvZIwXMjMe/asuhqlf6cVACPlPRlztkVw2QlAyk/NFdjfqZCDz562nFX+K7p5hloUclbGfZ2v5SD8CjSlQrBIrMl8s3n1Ad8UWZsVO5W0nxz/OfjMlKfx6n992Mku3MZuPT4nJq8imY4f/tMXxqejtVd89ySzdwhxLkE94ecdh6Zaqh/Zp6Db/y28S+20rz091uvIiulqs8Y7+yLCj2DXAj01Zcq0X7+P3yLelUF4ErPqvrTD0k18OAm8IUpBxj3INQkg98z5Kgg8Sh6CYD4MmVWo5r+bv+WudqXPIKFMHjiQuJXFndiGgA6As4W7Xky8Mvdo9cVBNj7jd6fAZw3FDFurVWKDhC5AYc1lm3pPDRD1KiFUVUJLXwy+7udPEAHD+x9IFAjxYyAXA58Hi02+KB21XpOyGvhs4lPCEkE9ax5Ukls3yETKuQqa5kBkuPJxRS7Pkve2lzh2FjLOQcRcqTxZdza+cPzZYYtlGyDgLGU8hM1NU2c6YVrZiWMUmugv97n1M5an0cdiVTvJa5sl5b2qZAISxPit2TXz84pfdB5gVW5jVe31flAAAii6fO+m0ejuzYicTcHlXRmn1eugVKHmCz1T+8jr+j1KdHT1dehvpWhs07Nrc82B78/IK7l+3Xzw3bLazvVVjA/2OXT1XKxcuepBSW53JyE8v+/f4UrBpgfHc6Xaqb6YUJ0dN2rqHWbqFWRfU62ri68pTkrn/wEHdFVuYdUfmxWRXXVnOi3sj5YsEdwtLzvvkV0rSvbbmC5nGhy9I8g91WcIYL2Rst60uLAMANiNwlr+r6zLGYiHjtrHtxqfVjjw9du3wXxmLxYzXtrlhddgvYXrgrK2mTRYzlsuYoUe3x4prnl3fjuPSlOPSlGOkBKjBoSnHpSnH0Y5TXn6JXihmvIXntpcKPIWMs5DxFkYAeCZjnIU/VVzPt+aKmOFCYZXLWH6tdhKOviSpfso6AnEoes9R5KelpeYJKUMhhNQr4uaxPkPF6xkc3c99fYR3rqVCbHotEfdVPjtihmLkcV7CHu6iZLbDLLE8JiSWdV8hVZ3IiTvHS/yTu62RQknFIpf8Sn8skW8i7FtFvY84kuQbp5vdLu7SvVfSdO8IN/7hwxeW5VTZYVay7drjHI8uufPGZY5sM0RdEUDsxbOdnsiGDhyQNLl7kCDdN/D6lcoGajGKM8FvVD3D5TaW5B9Nyn9722zBvWwRDPTk9SpGy01fCWnZCbXsMrd7M90LEQkliS/Wa1sMUa84F4Xx04JCtzZ0ffSdT0J3S8m9i573csvj+q1T54dlaq4dNTTZu4k0IjZUJl9Clnyn3bEXhW5tY6b7xH9jpxV6sWP4p465Zm5/JS5nIwd2UdIYdGEJm7KcjZkwT00BAETFmQLL+RvHxN2eHbPOWSvgoMmejIqUkeHio61dvon/69srHWVrxwb/mlnzVZR/fKz/8ETD1funpF3zPWKQMmHs6StiFlFbvJQ4zFvUO/+aUYfO6SR0vy07e4wnusoPHaeoXOO88RtLWwTIRi9SjDvHuzOKs3u+dMELWZUmoUbgMSiIfOcCeLDSxcKo99oIylEIIR/2wVbl13skhxic9Of34jEADKbyuta2rr5zKrvlvh+nuGCF9BbwDYC0slgGSzorWuopQB/jm1U2yaVmsbBgutlyBICBmULLuuxy5hPHpU8q/2QaAoDk1Ya7uZ49hsyzVQZg6tZ6XVRQv0cZi9obyOeSytCk7WpbbQAwMOsKgM0MispB6wHzLbUBmPZ0PfX79VXxpR1seOX1Nkhl4OtW27Rh09/cXnkdOsBo6g4w1+/S2HGkpTYfAEQZxSz43DepqsbnIquw1qCnbG018UrU/LuFjo17mBUllv8oevEsQKHhkR6OTTkMNFqui01sfD/6qVsrB8nroBhh0x6eo4zUAI0VXgnrT5TH/tKL16KeOHS662LKB6DZbE3TGJOIhNfOzob/zEUksJjxc0Ujrn7rnzqHnbiWLBypJ28ld/Y8PdLGArCY33PKiZ1zzmbNHvnhktWju/Puai4J6zVEVwFA/xWdhzY9vuShtIPH0MAnHjmiah32ZXwNM706PYgQsJ7XTl0BgEcXpZrnXBYos1jI8eusBMByBHf3MeGoU9IVlU8taICjCFkyZRyEkE8ZcaMiy2CJjjym7uvKOi8ZuV56Nh1g5esuBgswcOKs0JUs6C0+0BhtPRV8B3LdNeSr7TVYEb9IlfsKh9gzrXtyxngp1d6ZqWUd4t3MgmUAiJ5cd7sNACjKeVpcGnpoT7Xd1als5WMVuf3MtaqtR5T/vFihk4Ga/E9VbTuVsqCsQpRHXIjL9/2t2NK6e3+xV0ZobOqluJe/Hgie6NAutZ99vQObjG862PBGh1j1Hb018ED+Y0p6ATStnTnybVsZqSMy76mMdSjKixPz3XXklTS+rk5TTj4AsPl3syVIOCMIr5pK+mnAPxRxUfxwc8j0fXG3XotQ3grbVlQCCAAwHFjr2soTT6e1pcKm6FzggxFXHJP5QpS6xNlvSdVfMySAhql9M9P67Z0hOqnX7QnBxLKbIiQslDELq7QPm1V/Lk+BA8k7Dd2M6y+pwl8oOyGE1C/i/m2JZS0XSOPGKsSM5drwGJyTMgsl8tZjPvPDBUH/69KL92Q7d5dt9RcFn+MNUlcAoD1YSdyWc/mi9MLVsqnTpVPHl7GTa3t+VVFgra/rUB40X/JR8bqGTFHlu3E+Gz5U6WEUVN5zrDU8AKMOBUBW8O4ErqpeOye9dk5OSxNC7fc+3NHWdpEWX0+FgehNN7C0UFQKVTXNOqS/V7t22x25A5SZ0hrn48nLDVBWZN6cusqOX4aD7gNYN60vcg2JD51w3Zg1evO4E+0NdIBH89c71dCFXWsZTs/xxMNh37xdANzi5TTlprR6G7Jap7Wx52fXWs3lopZiXJUHydMZeO9ROtjkQ/eFGDIJOLqUcRBC6uGDuVWjxgqIx2Xx+1+8EfAZSFBS9acIWZwigiZzbXgMgNcxb3ew2bVRnDqb9zCE71qCTY8r+8a4BgrdR3DX7+Q/6KiAC2Ux9TsOVe3GPPFv7/aw1oCvaqciuZRWKP+zKOd5sYJ7g4oqL6MHHh/imtoPFTTVLCFLFrFg1N10+EjLkHfcsgX30iUw0KnL47KKumbjGhlWjc3GOurISw+v6FGOe1UATU1LDgNVTWuO6Gm+/FkeNrNI3o/LaLTQVkBsat6Hi1WqkArf+1CaKD8tLe2t1toacRhIi6u/6/Ts/it4uG9ub6ADAOKE5MLKaawMsZnycyrMvhlfBivNKqU9RYilVR834tnq2uWn73v37aNGQwOfPAyv7sHdbaP16vUJFz6jBggrjjo1q+J3A2YAD8H3ZB9ckE1GqQx8m3en5KelvU6jJ6cIIfWKuIYjlQax6D1ZdD5GlpZU9tfe0t8fV8kHmylAiNVHSl+nl8nza3sFlCLwngyA5Jls/H5Z1WA8cpP4RozsdXrZvUOSBxx0MpVv9/ha8Z8XJfHpZenPZTselsGCManfcSgZzWihg6sXJzx+/SKvMC4lcd+58yteympahDEY1kgbN2/+Hp/zMi99/+kHQcqmfqbcKlWoRhDfQtV1vH48bM/lTVFJ99Jz41LifjkRcV5Nr4++AqDYtqWl7evIEaGJsVlZNy7fmFeitszVuHLBvMzItKw3/9JqfCKb72DvW5Y64Mzzx/mFiU9vz3paiOZ2DgCUDMfYCi7cfPJMxkKSvedu3JtCS5fW9k4Jdzpeff44vzA5LfXC7Rsj76ZWKY7ouvFK/O4kxRSXpIuqb/vSPEdDc53DKXVNZw1Na03xmXPxr0SVkdLCRhtRcaczywBp3slTP4ZWr66Hh47c/SI+PevqqtObxA3Xdm/wZopTa33cfvRbVPbr9EL52pq1WOwuPDQ9eHNoesLLzEc3w1dNPbmrsKy8VdmpOhd7C536XS0GzAAeVp2SCgFphOyHGPZNJF7kw8HmsiGHS+PTy57dkQb4iebeqPK4suQhJDyovxNx2QcrXSwaDqInpwghNVaxPjhFkwnczzP+UdxtaCkYwB6HulaZ2Z5zdwynxQpZQ5kM3Rj2Fz7sOU8mc9y+kzCQQBfbfRRO76qo5vJRfK2sze5SSAAd+P7EWWgqb87VAQYvk5YWSsGBoAVzewmv3i+lmnj1fKR4c9HVs7b5pVBVdTU2W6hRSwOmdfvul8RXZx8+8p2IhbF5gE+7HlXbPNX6IX0xivOgXlEt09TrqZ78x+XLU/NKocjXMTYP8PHsyWEAKFh4XOjNTr9+xeZSKcBv069v1Zdxn148XeWtXqV+I0YH1LBbapYbhwm5Z+42+60EfPW2bp1T3cqjlKJrr+6BJ661+PVxIV91hJ1R01R5o7eCheflQUoLrtxpFlYCRYGegeHM1upVNmgw65vGkSGX7O7JYNgkenwrhzcRJE9Ywmg0N9CsayozJguWOT/yCzLeLIWy6aoH4+apKaj79D0SfXBUx5+91fjaTVx/6a89Pv3N/Bx0bjbwYojVklwYm87x956tW5ksGgN6Bl49MLzX+h+kHN2932e0EwAaQ/3HcpeeXjhx85QiwKiBZ3v3zVzmE1/1fGbtD4oHVkmV9wnhgF/dmNlF8qBrOY17l186+HeZ1c8yCKDpgI1mVUql+ZfA6w4BQxkHIaQeGJZlKRU+KGsKCtxgOfpvLCLJ3rP75CjWMmykV0veV541i+/7OLm9HBZ+Y5ETnetaySIRtwAGeypLYIQQ8mnquASAzvdgQyH9O+mkpDPSp0fZwzzNrz9p2dhTt0vtfptE4bZOpJnQnk/hlhBCdVxCCCHkq0aj9RFCCCEUcQkhhJD/ivd3Nj57etfeweHzb12NTgAhhBCq4xJCCCGEIi4hhBBCEffvilm8gfG5lf2hyWzyXKclzInCryfVYs8eYPY+zvs8K8+/e5JZuoVZuoXZeDX0PakRi5juiOyCSF+89e0qYazPir0TUmUfuwdCf0R2QWQXxO36Uimctbv/gl8OFddl1pS9m4Y7LR7RzG/k4LNZZTXMtm3MkLdnkEUiph8KRe9f5Fmoi9Xv36fUKT3Zu7f6tFvOGC9kbHcGlNbr+X82ea7TIsZ4IWO88Ku62r8SteQS/7zyfCk45z+RumIkDUDaY7rMPrev4qVRVTf7gcZ6yp9t/cXJUbPPPNiaXgJV9Z7Ontvbm9dhUJ38bVsOT2zWn/V4z/AAKsZmI3S0+J9nbzVa9GZbQHT3jODOh2cy3Asd/XdOpkaHRqbKqnX/7MYHjlEwFo3HInUIPt93glP2bvr+1wymMjJJ9H0mrp1n9iaFrVs1M7RSqsuqjEdM2TcCKXu3+Z3+27uR+zsUukHt489k8cFVl0OcesWGOGhxlbTr95EsxmRNxLI1bPJcZ/+175v+aP4ap8w2WTvd6/Jty4dzxK6XyjCXw/pwAeCghFkj3XGfPxb/1g9mfe5c4iuUu61Ue/N7CnwKiziyAdxPuike9HogYT10AqAE8h+PuA17dTv0+dYuTJgXdGOrpfv1vsbqr6OnnbnYQnNQsvNHfcfAsInHnq/wZCrpju3T9l9z6TGaJhM39TSRf++TVdJpUDXot5o9+LPXUWKRkwKdZZ9iVQVRKWUYbG6lLvi6EjlAFuGD/8YXTj5vLvFV0vJWinbnCBkoPitrtlLadRlnhSkHgLrZZ2ib5PcG/yiyY2BgS3HxPxtxk379w3x9GgC07Z4V2KpK4b04dN3RsQGxzySqbpObNHm7XC7OT8st0tI3qsNnFPMjn24u09/R08lLmYF+q19eJLa6HfXUuZUDmzpn9enbTRyMEuLOFssKDSyP9WnTV0MBbOaa347OK2AB4OJB5iIAhS5DR5234QFIuXjIJCwbACw8c0c0rRK3pUnhodOvx4bkS6GpN7lbu022mgDw+n6zgPguHQ2f344/WSyDhXO4t5MThwGQ8+Led9djzqaXZIOja2y2upvXaL36llslCeNWnPdnAKiMHzdsW8OKUQjZtIXrToU5uzdJePxbegm0zHYObuerza35GP8xAl17Q7O3B0zMCxqy/uxTACWNFy6ZP0ilyqTSiF3HDwU+f5lZpmlp2m1u/54eGjVvQBzzYNviq+GxRZqOzu1t3h4PsfgIJNpQr95UIEz1n3po3pXMHN2G48caVJ2Sc+Pytz/fC35ehAb6nhO6hYy30QHAJk912bYpkwWAWeuYWYCy5c5IX18ug6ToGQuvHI3ITC4CLI3HzO3t380A8kX8T/4yP6mrAABCgpkl0vcMUFjFnRkrWx4ub2I/2cD4JACMHcn+VFvO2AAuxVhyU3K8dfVqS1rZzz+ULnzMggFaMFdWcttrKMhrVMGyVd0V5h8pQym4wxRSZ/Hkt6SI3TVf7BvGQgLYYNty7nhbTr3Oufj4sFX9uE1mlsRtfyYs0jWas9x7jUfFsJPCyH4OJ9n1PRyPXP3lVharrtFxw6RL7dXen0uwz4bZnXzVUhBxJ7dgZLs/okOnPijTXzo6zdsQED/0D5m/L+5yYhGrrmHVzn37Mq/26vK8ImbxBrvYphc7Zs/fFPUwh4Vnx/BAT/GM9S0zPZMDW8mHH0kMc+1w0+rUzGDHuuWQwvTNI3ZM4XlF7PRqxmMgTA/88fgPF1OTixXh3mjbsp7jrXlgM9a32Txr1AR2XEP59bxvN+8Pwcm/BvX6UD6myThocgCghAVgZ8dxsamS7CK2fUuR8kKO3THZ+miAi44/K17qpHRqlKi3Ntj1/PJz3byb2GqvfABKSWLZ/B/F658DgKAFc2U9r/JLtIwe1PSQewgGP1Jc/Hy+cD+u2eypbMry52MbvJ3tHjrRantWszXjEy4MmvTo8c7M6j2WUVs7mjY0XnijLpuITcmCpp6LcvmFpdjIXBd52Q/kY+HJbsUVDxk9smDe0CuClH5HHyUAYHTnzpjI+g3dqqeEzoNZv0ms34Q3oci48yDWb9ILt7eryGUJYV1OJhV7dU6a7n3HWWnv4TMzMuRdhkrSnLUvNVZPHclOa/dt6gPnh/L+38Iiqamzx5mJg9Mn99qlne0beP2KrL7f/1Ky2LF4Eju307D35A+yK1Hp7QZ6s/OGHlNLHXP+RV5tx/g3q3cPvm8oYN7GszxVWr9D0Rx24Ke9j6Z1slJ6KzGeb9j252Fxp2WT1p3+btIg/pl5AbfSalxTacrOmUcTDdr8eHT2tIHs9TMZ0uprFD4Dx7J6G5r026d4XwAAIABJREFUzg+B417orj41K8nfUxr0OLwiO2LvXPAY/zhvaJ+o67Nj1jnr/nmgQXAmADAmf4QvY5OnLDRSxLp5bMpyNmaMb3mrcl5hkZu7//4pcben3R+jdn7Kfu9oaf3SxH3DD2zK8ggfDXTpnZWynE1ZXh5upTu83016psUy+RBGqlg5QOFEgPStvs+tU8QLc9mj+7mJ/txRz9gOs8SVQ0dlY74AWaGCwk1KpXvLJj+R7/AhX7FvEhu0Q+n1cd5BA2bC+NIr4vpeq6wMNxPSv59U+PiH1768tZOD/8ys0rnOik78Gvp67JCsp0sKg3tP1ePWkEsw4qL7Xj0jFlliy7UdfYZFzzVM334vFACkqQW8nvMGRV6fnXio9+S4Gx3mP6yWCE/uDLxntO7sAlHEzLAxRspQdB/a2ODOI/+KPUk68uBho0YL6hxuA6qGW+QfH+s/PNFw9f4padd8jxikTBh7+oqYBaPnM8QQweEVA0wVHz2WhK5OvXjMDR+bd08jM+diXTZ+ZqMsx1cxO4yfv4c7Ta/GGkge6zNUvN6EuR7ETfTnfpvMeswUV0sWviUkTyGhsPhfb1V+R/G5A7Ho2iegm7EAGOPXfvflE9fruSppZpEYfOU3tRV1FS6kJXnFrPxl4Oau/VQYQNC+nX2r7U/35TRbpF2PUoj09v34GAvnay4mhoCpV+u1UQcnPkjZ0N0UQBlUxrdqZM9hoGY63FTpz6RsuGkBMHP2+Llip3q0bdb38YOQbLaD3mfoZmvu2ldDCVDq5miIvzKi0cjzUzYON559JXyIqNrDRyyfr2dRW3cQmxez3GVxxV9qY8/NaVdD93rhi1OnMlssndC+JReA7tBvOp9bceVSfqvhH6zmim6HhWc1GLW3hZU2YNK3780nWxOrR+RCKBpVzzoTfjtVpL2i29hG2oD2n1OjA34oHztXfGHL7Zi+gyNG2QkAmLT+zSfiRHB0indb4xoOsJn7jmYV/x/WZdaujbPv58BR71PevQPWRjRf8FZvO1fLzAJ4CgCwGaTkMkj8R0bZm3RGYtncePTcptTPlgMgYL7S7u8lBzPKZpcPdcXFgbFcHQDuirNVJL8+LjvYBIiQeT9jl5znDdVTAOC9mrfHU7T0nrRD6/r2+Lm7/+6iCsDAp82ctf6Tr+Z9660tv5ogw5A+Ae0NAMDOvm+NqynjaY5vZWKhYtuKl9+5vZFDtpnluuQksJ5Q6TXzTZOB1qyJNrMXx92Ca2UrAsdow+qWbdUUAG7LjpoA0MJ1nuGdWSeyFo/TA5tx9HgWxnvXpTVeMz9984ijVcIt8OjuvLuaS8J6DdFVANB/ReehTY8veSjt4KGkN8Cl9e/XVkR3DXZURFL05nDBoGWWAFquPf1sbkn188hTNDSvU2L2UdjVSQkA7Dh9apwxN1hySAXhv/DLj+vXH5XWTZGElLK+bx474JoDDyBhoUSjY/1fRVy24P4rCbobyvvETBs00VKsFnEbTb9fOv1TbInjoVnRoqWpY8cW38yWQLseVT1RbLYUVjoVEUOjsQ4PWXl5MNUEZIrKTeVPMynyFDkQSUUAH5Bmxi87c3fzq7wseUWC7yP7HN+45nhoyhOSz+dAWvqpn63k6drb69YnVFftx+XyGhjUeEmkvUzOR8S3P1+rkuEaN84DPhhx81/nSjWMDCumG5ppKSZVz7BlUKh+rtOznpepdmwsH+iQZ2toiywAYHNuRktwca/yviozO5i+BGqKuHmvApeeWn4x9VluxcMvBdJPnPZapnZapjX1Npgp/OTA9A6UzGtYUY58VlYI9LCT/8nYKagBV5MqIq4aTCqaGXWUADELQPi8DCyWdBEvqdo4ll7fa5XhwKSBvGWYUXc0YhCVC8gjLsvwvFzrfDUxiso8BjxFgZKigA+Ap8ZKRaUAF7kXL0/69V7w8yJ5jU3Tthgs3jw1ZmXWSa16wZrR8xliOOvE/YhxPZweP/olu9pAzh8my1t7YEqxDGMNbCvSTRyT+UKUusTZr2pyIUMCKMHAcUrjs0MPxuMn24xTD280ahTuqAhAydDWzrCeydm2RV1rCA/ulyELzk5VIjuDl3ks3pTyGR4gQxmFxf+7Oi4ELAeVfZqKgvpHIkVdVR7SStKA8ku6oLgUilxNlXcKcVKZWPq5DodVrLo5GQCwmesDryw1anH7Owd3FSUIY33W32Sk/8IriH3wvVHrVa/fesGGa3GyML5XLd3S7+3HreFUqo88PLuz2d/ZOS77phrGfecDZxweRAU1liWqzY0Vk9mRda+hSu8sCRoeaRZ4bGg/a3UBm/Nnl42T3x826n/WpTu81cYfevvdJrel4XcXvfmr+2RFzJNcG/dxtRYeTtwRfPPJLprK529FzFvP4iqqffwYl0n3+kwJjZg7JGaktQ2PwYWjzMyikuoVyHefcNMb4NJ6483d0R2ZoMiMlp6jdesWyTy7Ph6T12P0ie7dvr32pkNaz/EDHfMq/UZb4+eI0wt0Xh5Pw+B+5dXNGz42bYJi35539gV2bedat69aW3LlV/2jMUr2CT74dJ+0AODReHL/fxGXUW9krIC4PEAPAPLzInPfypXEaWm5ZQL9hhq135zWxg3wLONBKevMZQBpVGImNK1dOQxYALKwlDw4GABAZvZdRmWEjtKHsoYa8U10FJGW/RpGhgCQH5kthplmTc9DF+WElvDGt2rkrsIBgMyM+1K0qHZmOJDKhP9Ecn/c+7v1blX+e1sxMDXg/vXkUXFnM5X3zqDEBUpLql4mGob6inmpWSKYqABA5ovCt/pxBYbIi0FZlYcZ9Bs4CYovJUtQ3oH3MjdGvnVtVysFXEvIHqmnU8cdZgtCHxRjVLth1uoAIMq+/+rNzinyeXiZLwEEAArSheX/qToVYsn779bqpcJaW5UBcNwVV/Akc85XnGV7BTXgzPOyyW4KANjnZYVA+xqffRXYKaAUgU+k3zT5QHYhTE/L52oYaNXpQW1WhtjMGMAWgDDjfoICRmp94iv6UcINVaug8dY2YABkvMgEU4ddM3Cc0ujs0P2hkgvF5r841u1Ec9DdvomX+qnhcU4zQg5dGjJITYFnq2uXH7kvWvrN+7qBeZ3cxnx/YMcWXlSK7to+8mr0R7Uqv5sZ8QBxxR9pbCwDFwCAY3MF7JJdFrMffFBLHAMFA3CpSfkz+jq/OaXSb4g1zt5cn1IKiB+tv3nuraAQtbWXaUOj5XV6ckqjscNkhfTxJyJupGdGRIZ+/6LUuGWjym9GR9xeFZ+TnJWy9cLTFya2wys7cQUmGgyeJUaIJWJprbUQxbZOlrYJjyY/TH6Zl3f3xs0fMlRnNKuxmZSv0Ygn3pWUKQIgzNh9JSbmremGOs6Fr3dEZ6QXleR9rrrv3zrGD1Z/dO3tnapztrc34n3a+1bNpl8/7ch1ew5deJX5qiDxXuzZFXsvRFWpodgYCVJjz/+VkZdZUCwGAH5LV+cG6eeDX0pYiJPCT998u/ii2g5sEkRVwrDAYkJnlZfbwh6JWQjTN2978uYY+3zn5nD1gvPG8PvJuS+fJITsDOmyJ6HGIoKKgzUXt2JjAKD49qpLOwsqNsRod3ZQwNnIGAB58Uv3JldfULuVIxcHb19PLkjNF1bdZwsbdUQ/35NSIhJVnCwtUzuntzmavR35Jg7nREdW/GGusMYIp3+WHIuRJT2S+a6SoBEG69WYDzhxdtszwTMlm25IEpLKIq5Ll08S7SqobHx8MqeboVXb71/UuegWHtpzz4uEl2lXf7q4k2u6uf2nHnLYVtcuPz3oYTEA2fOHM3ak1DXbGW2NfZc3MZa/tFP9W/WWZt8PWMiL8Z4XngKgWYvF7sJD04M3h6YnvMx8dDN81dSTuwrLqlxj/OMb7r3wcH1TjVYytH3nPDo01q/nm2aOzRUQwR4qKANw8k8JKq67ht5Kg1j0niw6FiNLSCq7dqh06PeiatlO0Qsod6DvEP5367jCyP72B47J79OzDYzPgqPR49jM0y6KvEEDbiUHj+mzaj7DN29v00cv/UT9w4rF6mFesjMP2my9A1X1nh6d71a+jMvp6Gr69OwJ02wJzG2P9XGxqFJV6NzOc2LIXedV9yvfnBHGDl99KVAeSkK1loa+eRtHwcbjQm927PWLZqek0NQbO7DryoY1tqkqGSzo3yw25IwgjKPF1xjq7jAs9Wm1GQyb7mqfOeDUUQMR4NaD7V5Td13s2QM29yo+gbVj+3a8+/LS+xtd33OMX1bhpf3T5z2TygAoYfnqEcvB6NkuOedjyYHdjMnTNY8f2rDn7GuJkqa6mUuT3lV62hiXzuO80/2/33RJJLb49rulkwzBNR6zuve2xQen7mFVDMxdmuvFv6x+CrpBNQC5t6Dc+s3t4L5y5I7Zh1u73SpS1xzU1do2Qv4sJ+Pe/eYe7rc/n3dbVwSeipaz+fTpNdfMeN1WDpw5PcSu6V+66nyr7i1nOaavq5jU9fs+oyeetGv6l66V+dq+VthbfcElfb+dENLWIxTKpqsejJtX0eOo7tP9j2uHpnmtmCWp29tBFbS9lbw3yoIrct6JO3jZs8T9h5aCAZrhyjqecW1rGBnA4/mJh8yWQiKFOpw9mIDKEpU4L08EZWsHjbqVsRgOejp5nzxhuTgPlpZzNvf/tub22w/lEs4fXsTe69iC9OHj1zMMX9fEeM0Ex/1/1OkBXF4ntzGCpzu7OH3zd8uLgoY/bWx7ru8Z2xOmJX10h/qP5S49vXDi5ilFgFEDz/bumysrjoruQxubHb6d1MdR5/PcQw1HKm25WubdQQxN+AxVsL5TceI1mcD9POMfK069LvoMVKjcB2koimQw7kFB8fM24L53RPr/i7GD2NQ5q08/6T/yy4eZv7fbsXgxDTq73vPNqU8rdQiE3WA1+r98+ZfswMt7sN5KfVcfcUFGLbFu/VP/EyVr2tShUiY+PmxVP5shdS8u/KPSwru2Oad0YOYpF/7n24j4ZDDfT7Tzzgjfr6r9NmcKcprCeiJd0f/dOi6pt9cjkW4O288TKoT+iA8Gy+I//0k95RHQZyERQZFP11Q9xd+8UeK2dm5rwb/7MKT56XlhP129YN40/POFW5GoMP3Vqo1P0XXIkK+ru1QM1gnGI+hypohL3mqVsIbt2c+7CcFYNBr7/5GaPGiNp2vqo1hNvPz6318xunPRasCtbAvLFVs6fb6PYiZt2mG+IRNerqcW2Ai+thtBh26EfyT//v9tVSaEkBqwGUd+DL3yvrqoaf9O811VKYUIRVxCCCHka0RPghNCCCEUcQkhhBCKuIQQQgihiEsIIYRQxP23i77ErDl/itKBEEIIRVxCCCHka/NF3w5i86a6+If5dmtx6eaW54UwsVu/ZcAMax4AJEXPWHjlaERmchFgaTxmbm//bgZAcUDPtfPUTBtEJT5r4r7NLmX+rle5ffokb3AxBgDxQ/+Q6f7Pb72WwNJs9MJvAtpXHeFSnJ+WW6SlX7cv7EuTwkOnX48NyZdCVdnDxiWwt6MFgMfnmePVv19v2CR6fCt5SsVcY44U7/M2vnDu0Z5sEbSMd4ztPlaZBuIghBDyVdRxZQ9DXnbyn84+mhWklzhzRcWX4/MKi9zc/fdPibs97f4YtfNT9ntHSwEwkGVpNToe2KXNvdAJwpZ3DrZxPnczIEUGIGnTLtethV2X+8bdnnZ/jPL5yUEL4qoMZhK1taNpQ+OFdRpuCLlPJ5yNZ7y6Jc4anjys7XQ9RflYdE27sn6T2IHWEFic9JvE+k1i34TbcpK04dezegwaJFowKq67YyOWLjBCCCFfS8QFhrQboMsFX6N/P3NEvwov/7GZ+47pbp0b61nqN3Ad1mWWZcGh+zkAWHDgYW7XxLKNtiLa29i42XoIim9nsGAT1uzINF82aFEHI0v9Bq4+vdc55q08+6qeu5RbeFum2snawExV2djAZIi7bZ3r+5wRHVsP1hPwFHmW1uYtVaiCSwghRO6Lf1eZAxP5l6d4PEWUikrkddxXgUtPLb+Y+iy3op5aUDEmKJ8PiLS50OUBgIDPFIpZJKU9yRUljl1VLcTZFFX+v9H0+6XT67pTJjZrdJ9O3HLgmLmBh7nxoEY2zeoYO5W0uxhx6aoihBDyFUZcvG/cV+mdJUHDI80Cjw3tZ60uYHP+7LJxcm3rKVLQGHRhZrDjpzgiJd0Jk0Z0Snx5Ky7lTNh1p1sJRyZ36V+nDmCOMl1ThBBC3uerfFaZLQh9UIwh7YZZqwsAiLLvv5LWsoi+gYdGcXnL8weI09LSUvPr3rPKtTS3HtGx3f4JXsNKXu1LLateJJCWyqiTlhBCyL894jIqDtZc3IqNAYDi26su7SyoLbwJLOaOM8TKAz7HE+PTc2PuPd37U+CcMEnlDFFbe5k2NFpetyenkqPmhMbczS7IKMq7G5FwVEHDU6dKBVdL01mScyAuXyyV0gVECCGkjr7O8XF53VYOnDk9xK7pX7rqfKvuLWc5pq+rbRmzKaMf8EOmr95n9VoEHQ1HV/vvTepbnuBzpE8fdr5ZWCBi0UBv8oCOc9SrrMqw0e8t0nyPH+CLqr8dRAghhNRQnaTR+gghhJB/AH1zihBCCKGISwghhFDEJYQQQghFXEIIIYQiLiGEEEIRlxBCCCEUcQkhhBCKuIQQQgihiPtB5w8xLkH78Z/+SHL0JWbN+VN0sRNCCEVcQggh5D/vS3/lMS1u7ZxTK+5m5jI8WBkvWj50qQu/fFrOjcvf/nwv+HkRGuh7TugWMt5GR76U+KF/yHT/57deS2Bk0GFat1ODLQQAgJjFG+xim17smD1/U9TDHBaeHcMD2zgB0qQovx8vrrybBQUVi65tg1Z7tOQxCA5iZkVX2x1nz/CTPZxq2F82eaqLf5hvtxaXbm55XggTu/VbBsyw5gFAUvSMhVeORmQmFwGWxmPm9vbvZgAUB/RcO0/NtEFU4rMm7tvsUubvepXbp0/yBhfjtw7E0mz0wm8C2jeosjFxflpukZa+UZ1GCZQmhYdOvx4bki+FqrKHjUtgb0cLAI/PM8cTqs1Y9UPQMdeYI8X7vI0vnHu0J1sELeMdY7uPVWboriCEkM/hy45kIP1rSfDckkbHTvt68MRJT2LvsvLReNg7FzzGR5n/0Ceqg4FSYtTc7w400JjEeusCSNq0y/UP8bCVw/d4aEhfJm0KyysBBG9W+eTOQPW2J872ackrCb+frQwgL2ZCv2MBvbrcWGxtKsrYtuCIx3yVrA3NdLyHsd7A+UPMD5Kgh0OHoo6RRvYw5OWC/dP/VBPuH7Np2IqIETvddQDkFRa5ufvPN7PSVci9dKnPlP3eJ6cFO4KBLEur0c1A2wkDzk4w9Y45mDl45M2AlGaLjDlJm3a57lZa+ovvnka83EuXek8OWnBqygorjnw7UVs7Os948N01dk2b2ncq9+mEs/GCbt0SbTU5Rdk3k4Si8t+bdmWbAtGXmNOyk3O79np3QUna8Ov8A4MGbdNWeJX4OoNGICSEkP9oxBW/zpTA1rqrjboA0DfVbVHx+4Utt2P6Do4YZScAYNL6N5+IE8HRKd5tjYUJSze/xg+TA/vqAYC+1m9u1VfJMdqwumVbNQWA27KjJoCCwzcCGjiHL23hBADayxe6/DzmQUhpU19ufStzQ9oN0OUC3P79zPHrq3CgE4Bm7juaVcwwrMusXRtn38+BowoLDjzM7ZrI2mgrXm9vY+Om5SG4ezuDhVHCmh2Z5r98t6iDGgD49F539NehZ1+tmGpan13KLbwtU/3Z2sBMVQGqykMM6r4kZ0TH1oP1eAAsrc0t6YYghJD/aMRV6TbETmveQeXn5qMaGbbo4ezrqS8AwObcjJbg4l7lfVXmdTB9CRinp0UIVQY11/7gKq3MOqlV65wOv5+B6ARn47DKnwQNX+az0K1fxOXARD7kEY+niFJRSfkfea8Cl55afjH1Wa5MPmNBxei5fD4g0uZClwcAAj5TKGaRlPYkV5Q4dlW1nbApqvx/o+n3S6fXdadMbNboPp245cAxcwMPc+NBjWyaqdTt6JS0uxhx6TYghJD/fMSF5qDB6V6vrl6Ju3rlyRSfsCkLxrLjTeWBbcVkdqTe314jT1Hw7o9depfsdBd8on1+XyVUemdJ0PBIs8BjQ/tZqwvYnD+7bJxc23qKFDQGXZgZ7PgpToGS7oRJIzolvrwVl3Im7LrTrYQjk7v0r1MHMEeZbgJCCPlHfPlnlZUMjLoMa7Nyx5QIb02cT4gBwGi7WingWkL2u3PrGzgJig/dz6n7+u2b6yE66bL4w12UYunHHgNbEPqgGEPaDbNWFwAQZd9/Vds69Q08NGo+EHFaWlpqft17VrmW5tYjOrbbP8FrWMmrfall1YsE0lIZddISQsj/b8QtPrn+9JYrr+IzCjOfR+29nQ9rXRMA4PX5zs3h6gXnjeH3k3NfPkkI2RnSZU8CAAgs5o4xwK8HfI4nxqfnJt97smZrZHbNoW2g1xhxdO/vrh5/kZPwMu36kesjF92LeTPZrIG9MD3garZI9BFxl1FxsObiVmwMABTfXnVpZ0Ft4U1gMXecIVbKDyTm3tO9PwXOCZNUzhC1tZdpQ6PlN+q0A8lRc0Jj7mYXZBTl3Y1IOKqg4alTpYKrpeksyTkQly+WSumKJ4SQL+XLtior6rA5ixcGfPtaBJ6KVdcOtxc4lLf9Mu7db+7hfvvzebd1ReCpaDmbT5+uJa+zzvZ9oBkyffU+q9cSGDXoPKHX1Jo3omm79fgg/R8vjul5JZfhwcqg/+BOOpVV4BYBIxOGTNwgKKnD20EfxOu2cuDM6SF2Tf/SVedbdW85yzF9XW3LmE0Z/YBffiAi6Gg4utp/b1LfAhCfI336sPPNwgIRiwZ6kwd0nKNeZVWGjX5vkeZ7/ABfVP3tIEIIIf+gL/0+LiGEEPL/gb45RQghhFDEJYQQQv4rFCkJqhM/2HlhZ5zs3Qm5bs2D+hpTAhFCCKkf6sclhBBC/gnUqkwIIYRQxCWEEEIo4hJCCCGk7ujJqU9KGOuzPkxl9LBtDTmffuVs2sJ1J34uZgE06TficROVt2dI7of8YkABpmehXu2jyrFnD9hkOeaOaKr5kfuQ2AtFpYAizE9DlUbSJYQQquPWVdHlcyedVm9nVuxkAi4H5JTWaaHoS8ya86feX4DR6NDItP1nCkWMwfLZE9lFfZeqfLicpPYdGp97K9wCUDE2G2Gnxa/zpqJOBjL7o/LenWB+CvazwHy2WHtOyjgJmbFC+Zc7E8tsnIS97tHHKQkhFHH/5WIvnu30WNimV68XYzpvYVLHBF6/8pGf+1fSHdun7VD1ry5VDZt47Glhwv+3nJhH2JVRRjcnIeQ/5guPSP/QP2T+vrjLiUWsuoZVO/fty7zay+tn4vDNwcP+jH0mUW0+2a1pwLWdS2azfdQASJOi/H68uPJuFhRULLq2DVrt0bLKsHSleek5Iq6GgVbtY/Oxabse58C51++OhgCs+7ge3xi2Kr60gw0v48Yx/UjeQj3hvqT8RPD7tW4X1KIhH8Dj88zxhPKley/dUh7K5J8pliSMW3HenwGgMn5ctVbl4uSo2WcebE0vgap6T2fP7e3NDQFAenb/nh6KzQJkictf5sQpavj26rLTVhMAJNlHT4eujc8MKyqFqnZP5xYVi9RHysVDJmHZAGDhWbVVOT/0pOYDwXaH0t8fv3oiUnLyaHe1vbkmEHpod6unQgDADa2lNwDArQfb3fSfuygYeFpgTqBk9kze2yWkYEmXP6QJhYAOfGdwdvaSj+zr21IY6q3Q8lrZnlRAE+s3c2fYytP/3vbSwXtl5YuM+l5xVycluucJIf+fdVxpagGv57xBkddnJx7qPTnuRof5D8ubE8UnT7hszLJYMz7hwtBZjx7uzKxoV8yLmdDv2EpLzxunZyUd6jcs/qrH/MdVxw76a2wLQ1vvPwrqUEPKy3lQrOBhXDGogaa2q4r0QmKu/M/MlEMNWz+dNUY61Lb40gWfBDEANO3K+k1iB1pDYHHSbxLrN4l9MyqAksWOxZPYuZ2GvVWGKYyfFhS6taHro+98ErpbSu5d9LyXWyWGxN327Bo7zzfGTSng9J3T8hq2KEfJaOaA3knTfeL626k/rL7I32TceRDrN+mF2/s6cHOT1qq4Xp81vnioLRt2Y0lGGQDPQaNYv0mRzmqw8cotP8b6hlvpDm8B844WyyJqW3D4BEUcLztVfYDFsr+kNiulqhM58cd5f/VRCFgkm/mksrU55kxZ7x089iZ/ty4zc2lp+SURv7G0RYBs9CLFuHO8O6M4u+dLF7yQ0T1PCPn/jLgqvWZ+M6O7laOJlpmt/ayJNrgTdwsAio/teoauHY50MzY3NR76s1ebijBWcPhGQAPn8KUtWttomzaxX77QBRcfhJTWqylYVJgBBQP+m0oP14zHQCSU/yUwWtFCjw9wDJ1+sCg7ej9ZVK8jFL14FqDQ8EgPx6YaauYOLdc5qCXej376ZrJ5o19MVQFFm8bWnYX5D8tHw1UyGtfTZZCZrqmmmqV5sx9tlRNj00WfI/kFxr+20NMElM1t+quID70q+sTtJwPWRoS/LerQVLtaWx/cOSt4mH5RUvXHK4FS2OCqD9fCTKHNNN56XWwIrNK/219hoJ4C+MygvhzEIxwAsCxQZrGA49dZyVJfocUI7m4zrDxFXcKEkC/mCz+rnHvx8qRf7wU/L0J57qppWwwWbEFUShm6G8pbhvUNmmgpXgcAhN/PQHSCs3FYlbDR8GU+C115w3LnI0mfZuB1VU0HTvk6FY01lZGS9xqw+PurSUkvgKa1s3xVsDJSR2TeUxnrUN7qqaosr3sqclUgzpaHA+HdmzcWPEi5nF/xJJdFqQj49L2wqoKG8h3jGHKQKv3U9T8tUzut+tSPy/jMxOGcBXtkCWsqr8/IVBbNmTfDLDY2ZxDPZgOQsZUgAAAgAElEQVTyX0zlKSzgATKUAEgsuylCwkIZs1BYuWozlu55Qsj/ZcRNutdnSmjE3CExI61teAwuHGVmFpXUulSX3iU73QUfv3W+mh7K0kQSoDz6lSaJWfDfrFgm+mzHzau5Wvz4unto/pyBfQ+bamsqIurkgcZ5EAKa/7ZrS7rDW238obeT0W1p+N1FtQ5CrP2NUs8/ZVti6loIeG9hKJ2B9x6lg03oFThCCEXcRwk3VK2CxlvbgAGQ8SITjAAAGPVGxgqIfC2EngBAetqTXHntz765HnYkXRa36MV7/wsqf+PJKU1tV5Wyn1Oy4WAEyLt1u5jLx71HXl50KevMZYDSyOwSaGpWe3ZJKi2VseDU/pKMsY46ItPDZawFhwEQ96oAmiaWNS4YlZQFE6cfLbU1AaD0Rf5bhRAOq4hs6efuj+TgozehOGBtRPMFwuo/crXM6tRUoMksbaXgul2qxqC8FbpxQwbRlZXayEQWLpVV3vcwYAbwsOuejCIuIeQr8UX7cW117fLTgx4WA5A9fzhjR0rFBJV+o+1x/orvuZS09JSgpTeuV0Qo/YFeY8TRvb+7evxFTsLLtOtHro9cdC+myir/xpNTjMHoptoIvzUt5nVsWvKu0w/OaVnMt5Q//gpJ2vDT0Y/zC5+H3/rppcKA5g0rG3W1NJ0lOQfi8sXS2jsF+Q72vmWpA848f5xfmPj09qynhWhuV/MYEcYN1JCWcrWYBaSvn4YufVn9LWFGw0tPKTXiyd384vQi8WeqiBvrqyAt8ViOqC7H+EFapnZOb3M006pj+4TLOEW1FyisaAbu4KOIF2gfWBqfXnZ9o3hmJrx9agylfGaRDweby4YcLo1PL3t2RxrgJ5p7Q0L3PCHk/7KOa+91bEH68PHrGYava2K8ZoLj/j/kGSKvd5+HL4J95mwxlGo0n+w2JuzazvK2X03brccH6f94cUzPK7kMD1YG/Qd30qnv9q07d78kuzr7+Kk/RAowMd/p49XhTe1T1/IPpRcdN93IUlTv16nLDgvlysUMG/3eIs33+AG+qPLtoNizB2zuVXwxYsf27ah4G0fNcuMwIffM3Wa/lYCv3tatc6pbg5r3St+t7en0S0M2BfTnc50NHaY5aowprFZLbN/Na0bwTfffnoDR3zG771jlD9eYhbHDV18KlE8P1Voa+u7LS++l0cQ9IOaq75ZdY6T/+NtBlZcH5w8LjIqvKBu2VXwxs6zLVpnVWhnUMXAZZ1dtlVfLady7/NLBv8usfpZBAE0HbDSjz5oSQr6Yf8NofcIXw5oeTtkz57rHP/QyZcaNY/rP9KLfvPnzb5HcD2XjYNbz825Feg7PN8LsFH3lkRBC/pavtcgvTD124Nm9DKFIlB/251/7Da3muVBvXB0U/o7IHpVNsZ9c0jd4th4s1RQJIeRv+2rDmDQ+8NRYv7xcCQdO9r/92edDj0qRSibHYPKZN2EWQslMCCH1829oVSaEEEL+/ah5kBBCCPknvL9VWSpTpgooIYQQQnVcQgghhCIuIYQQQijiEkIIIRRxCSGEEIq4hBBCCKGISwghhFDEJYQQQghFXEIIIYQiLiGEEEIRlxBCCCEUcQkhhBCKuIQQQghFXEIIIYRQxCWEEEIo4hJCCCGEIi4hhBBCEZcQQgihiEsIIYSQT0Lx/b9ySoDCz791NToBhBBCqI5LCCGEEIq4hBBCCEXcf5eYxRsYn1vZH5rMJs91WsKcKPya9vgas+b0aRn7Odadf/cks3QLs3QLs/Fq6HtSIxYx3RHZBZG+kL41rWjPDn8mLOtj94B9gKddEdkFURNQ9oVSOHz5z9/OfFiXOVP2bhrutHhEM7+Rg89mfXh32ajzMzw23cqp/qsYSQOQ9vj9izwLdbH6/fsUWZ12OC/+x0FrGYuFjMmyNmGSeh2z9LzvUsZ4IWO8kJnx6L9+0+efnblZ23YhY7yQWZn0ZTKWj71Nkuc6LWGCc/6fs26RX9cjQ/aJP5hEj57a2l44UYczINyLZ1PfydD+qxH3/CHGJWg/2C+1fVU3+4Ht9JQ/2/qLk6Mmbd3DLN3CrAvqdTXxdd2WijoZyOyPynvvNDWDGXamDTnM59hbjRa9Wb9Jwm6mNc1kuBeNA955BoBrYW61Up9f91xv2xZ/Jiz37Z8ZVzich0kLMMznOiXsw/NTmi8e0ezNP7+Rgy9VjZe6Tg4urXXqsirjEVP2Rfy0co6x4t/f25K9KGmABk0//oCS/M+syLM8c2dB9osfznso1Wsdil0D/NiUJdd68T7+Pn04R8w4CZnAUvnfByVMc6H/l7vH33b9+jfnMerY3NyoH4UzTf+lGcs/ZMfwo313CNn4OPcmb0evC7NO2E6J/3K7xnXr0LCDjWJd7/p7ESYtboRJETLzeMsl1fJhgTcEKci49w/ssyL+7zXs1e3Q51u7MGFe0I2tlu7X+xqrv46eduZiC81Byc6aH7VOQ/v133yFCcn16tTO699z3pU6rRnb7k1uq6reoErp07hX//Gfe/tiZJ+GytRPcgsmviiEjVX3ry17D5BF+MDp6zv14vRCqbpBz0Yamv/ejIUACr3ne3yaNfGg7YqU3dB3A+c/HHGDg5hZ0eX/HWa8aBgAZ8/wkz3Kb9GcG5e//fle8PMiNND3nNAtZLyNDgA2I3D2yXV/pT7MEaOBfpuRnQKnORgDuH6SmZ3c06Lg9HOe90wXlYCrAfl6M4LGrnfk1VQz+PUP8/VpANC2e1Zgqyp1muLQdUfHBsQ+k6i6TW7S5J3aS35aWjFfo6GmoPZ6XOTTzWX6O3o6eSkz0G/1y4vEVrejnjq3ckDp8X37+ilYzpe82pwuLlTVXdGr0w+mAgChh3a3eioEANzQWnoDANx6sN1NASD+huG+qDQASian5vXoWVnNlSaFh06/HhuSL4Wm3uRu7TbZagIAm7Zw3akwZ/cmCY9/Sy+BltnOwe18tbkAkBvvd+Zh0KvcOBGLBnpT23ltdNSp74kUHtyxd0hqGQB0Hsh6NHizV2f37+mh2CxAlrj8ZU6cooZvry47bTXBZq757ei8AhYALh5kLgJQ6DJ01Hkb3j959bG6FoZmNm//Grl67aqgQrBlvPb9dmxwqTKlNGLX8UOBz19mlmlamnab27+nh0YtWyhMPbHk6JkbOYyWcYeB2pLqNTzpAxSJ0NC1ekKm+k89NO9KZo5uw/FjDarNnhTl9+PFlXezoKBi0bVt0GqPljwGkJ73Xd7tYnlz2CEm5BAYnlfw99c9lD54p7DJU138T/4yP6mrAABCgpkl0hMPh31T3/v0gxrApRhLbkqOt367zh2ySNznfBkkgCm2reGOt+UAwDMZM7TUZ6pCVFBZRD5gjzB/fkseAwAidtd8sW8YCwlgg23LKxb5+wp2+GssSSj/f2fjhwAwZTz7gxmA4sd3ps69uiumCA102ozsJk8uAEDM4g12sU0vdsyevynqYQ4Lz47hgW2cPnhSashYxOGbg4f9GftMotp8slvTgGs7l8xm+6iVn5Qw324tLt3c8rwQJnbrtwyYYV3n20GYvnnEjik8r4idXs14DCB+6B8y3f/5rdcSWJqNXvhNQPsGgPTOjPUtMz2TA1vJjysxzLXDTatTM4Md/34UODTluPeJ8v8+Zk48BqRdZ3U4N0tb3oSw5cGS3a/upLOWdjrTljhPcFcBwManzvR7duFJUVIha2mnOeEH52lt1AFcX3x28iNt24y0R3z9hUOUtv2ekmlldCKoeSOVGrYv+bXP6TkPAEgG//LNgeFVUqqgYN2c+79dKSzV1/x+sKpCnZtVBB2BZSjKw+cthn3ZVmXvYWzKcta/GfQcg1KWsSnL2YrbmL1zwWP847yhfaKuz45Z56z754EGwZkAICrOFFjO3zgm7vbsmHXOWgEHTfZklK9MOUesOd/3agcEr44y3jz5mEvRhj1xNW/fbPZUNmX587EN3vo979CJVtuzmq0Zn3Bh0KRHj3dmVm/gZx+sdLEw6r02og6HGJuSBU09F+Xy0KjYyFwXedkPyrtgWRniUvPa9yuYNzLJTWnBwYtBJSwAz0GjWL9Jkc5qsPHK9ZvE+k2Sh1sAll6v/SaxQ+zfKimVJYR1OZlU7NU5abr3HWelvYfPzMh400YquxKV3m6gNztv6DG11DHnX8hbqouEeYaOf/oMTJruHeGmcub4+SqL/F2CweMmsH7Ddzd8X3tmbNxtz66x83xj3JQCTt85LWPB6M6dMZH1G7pVTwmdB7N+k1i/CfUOtzd8bJh3zblYz0NpPG/O3oifZg3iK1UvZz3fsO3Pw+JOyyatO/3dpEH8M/MCbqXVvCbJreW7/9feVQdEmX3t52Wa7u5GUAkLFBUFW7HAQLF1zTXWWBPbtV3X+q2NYgchKgYoBgaliISAdHfNMDO83x8MCChprPvt+/wFM++de997zznPOeeWT6LynNO/rttlmeYbXtJQiqoiUC0DVn3WFrz4/fzMeKWdfkuTT9gJvN6E1zWhKG72qBvb9e2Cby1NvjJqYmKg7co3+aJUsAeZ5hE0TAJjXci0LWTqusc1WeWmNeVb6anguCvn857vtlmkF5LYPkbM+5Sg0TTau10854DqDXvoiTdZp+WI2VOr/HifzOL5Z9Wn/dmkH8slAba1Sekr03jTkkmv44zMm6xLqsTsWVUPee1MUEvPnEGmbeHtM4am9b20LWTalhq6RdH7WRNun7bs9+rxsvhtHciDFxt319sXY19p7L29mhux5Pl0DfHmBqVJw8Lz9bY+mKe3a1ZSwISlkWENDYswzCfF8cQiMnKpl/LHJdsi8ltNt6ca0C2SD522OVY6cMu0hJCFr6eL353ntTpBCNC7T7BQfRF5Ilek5snXQsPMzVd3oLegQTKKEloyAIulr85m1Sqpy6GRZNrIu66EkXMnMm0kmTa2jm5f7H7ocrnCfWfv90GOh13o++Y8u5wBANw8rngv47/P9U0KGXTYhXPol+dnRQlpIoUntvp0n2G0zLW3WH9ft+tVkHz2VfPrFxjLvEeSaYPWmTcmsCurgnelco76DQw5aBB+JTW2fg8zOUaaLBYgqyihrdzYy6Cbg0WgJOq/mVXmBRwNiRs5LmKKCQeAVq8DbhHel6PTXPtocvQWb9UTPaXSa6PTc++g1Ep3ZQ5QoaThaqPSN0EFUZKDzJUt7BQQWJgPtD1wK79z8QMGOp8apMkBpq93OPPA+3E7X0SQW8YDW7wuWpGWYEJQUVROQhoAoGuxQ1scgHYXyzWP/ZbHlk60km5HLSGvE+P0rIKstdQAbfteu99dmhOatr+Op7vYjJRhAIxBHdTwKCca5nYAtMz/1BJ9r92128rQq3OSi/cry337wdQ136EtCcDIwtAp+H1YMTlU/ltO0PbYfStmeUVlwxwRXU235V67MHbDBdHfZd02b184gtl0tBrv55fbbdNshx5MAEoTRjjd2fbwfnHPSU2GuWR+zMPnZV03jrTuwASs3dwiw7ZXNJDxj4A06vN6ZdIBvzL5bYNmmMsD8kcWRJ/6XbQMreRq8ClFq/BN3SwBQH7LWuut00N9qjpNYzbdk01ryjezHWN2R3RZXdloakFORw94DwAwcmFYu/D+yqneUO+Bwz7VmCLmYc8AoLefdbAvd9E9/rBhor53XczozCKgSszuSFx5Wo3pQITQNYb0uMuaoCwGwHUn66wdd9MrQb9ejG8oRVV+Ly8w9S9u6tqFRUBr4MFR0ZZXXke414vjaRr7d/boIyUGMHv0l23XoJTfOB2Dgc7XBmlyAN2t9kcbGZbxfccoMQHm6FG62JMeDji21GzZ4uzDk6/Xp1uQSbuO5+ru+HVdPykAcBu+9/qeCbfTty3QRjebFWovlnrnbZipDDLn+s08zHK1BPjNa5DL/oEuAKB54a5mK5IIuUculE7dM2yqPQ2A9nSbmbd9vfxLXGdKc7rpb+smekp5escRnrcevhW669MAUs9MuYuxbJIxIpRULIyVeungfhoXkGhz2iov69xjnsueboNNaYCmx7zkc2vL674lOps8vA4AWOPU+/PCMqDRIUz9TzIuWfAkmo97nuLn6n1opp0CaKI87LDPonMJTzO5qFmS2YdbAXAAsOjiANh0sOniAJtNB09Q2Z7aS16n8zFYTWSbtBU7ytEbKAZhsyOjcsfXvyZBg4ysKIVBSBrLEBlZpUA7GJf7IV8AAwW1WtGxUGAhr6gI2rIAQLOtzX6z2TQIqkSrGytzzt99tisuN5Jb600KhN9lNCXFRe9IZ0qAl/+tFwQy1IxN1NpVsN48brW4GrM5kchKSS1GxNytQfXyCpoWRUDTieWsjHy+VA990c8qGynLsD82jIEBJuob5+y82GrJ/hYiAWAZqxlDxLjhr3MQnWSl+bweoaqnFJNQasZ3aVpTvhXktE3kmlt2xNcR22hGDD/PX6FeG4pwyehSWBvX/itL9JXEnpRPAWsHFdFXHBkgE5UAYqtBwmMAz6N+ai77Gy/C+hhfCM2OVixRf5p1UcCtvPcgLetGyEDHUapBQNXmQSFL3qVVfzIsKqoNDQsNWqITgVgsOqq4FS23Wli0++L8ciFmqBrXthzJWW8LuR9n/NGgEUZlAEAou41XW+r9OmLmEMs3kTvy1XcPVvwaDfrSO2bkhReSbyb57qz3WW/zckAaJWWHNoaeeFAcm19dQQIgx5XW0CrJZtEBsJjgSNMAsFkEl9suY5Re+JHPHmYomnLQMZQxoJW3IeFLA5/334xxAdCwbR7prtw4+L3ibXMwb+rhmd4OqgpA5Mp9lmnfvm4OScMnA0zntF+76UqSLGRVZAE1Il1SXgU6U1aiTh3qydV3IrwmAryndwImZalenOLorCLJRvHZo1encPFvRLCbUW+vD40/XRZA7nZqwTh8cR636aGUdr+6zEmnTarVXBQmJgGko7rpiZ1GWfYBwytOdm89X7ZWU4j2e0CC465Ss640lpqum8Jfrqv7b/A8Olbwg2Z+XVaDBe8XnH94sSCL/oXOb+OgNI/2rJm2G/hmetGQqd6DB80NspUUJWzEZFwCvjw7qzzGutfBJ2ei+xNeUTk97KYqiX2NBjXlyjLO3B/qro/P8r1BW9PVzt/o4aDHAngrBvilfB/mYLVP2HgQ8kFT+m8wLq+h2hPyNgZiCErKd1dulBOOeZ0O296HHVQ5AMBLSi3FN99CQkiba4ohoQhQBoDioqjCxlapOCurAjJqqi3rmqGmImJyQqtIKyYBCN59zIWsoU3NiidSiLyiJEAPAL/wTTGhrirVwOdoLQeztRToyMrPhIYaABRH5fOgI9vsAoDy6HQuutuMU5EEAH7Ji+KGmzjpNAiElT9i7L/Wz2h3VrktIqGqrcp89Day3Enny5kuBhOoqmggJqrKCozizFxABwDKMgsqGk6TczoBkagiUbetSEXRklN+P5WPGluZUhhX+6xpF2UcT37A6zas1dakaU2hs1lIKebXhLsl2ZUN4146IEoOcVrS0xazygBo3enbWPzf7taOMpvoIIXDcdWihGkRGVQGPe3mXopjIoYqnH8rGNGxCWPFLc4qqmTKqsiz228LdI3k4JMeziNrgsX3r/OhbmzWrHFp86DUGJaozEoocwBkZ70t/MqEDw2DTTvaS/tNSrBc7HPl/ngXKTGoqNrKlB96XYAOyl8oodphvvntCRee8QPKdXeIlkp+hQYxwW3ocRHqimYSsQ9Dy931G2lK5av33AHzLBz0WABQUpiS2eplIzxeTnE1S4kj01I/E3pyuozYD9mAPgAUpZfFt9q8kKmoEkLG6Hvbu59gP66Oomll9qnAfC63Tv5Yzr92NQsMsDoY/jq1MOVtks9JnwFnkwDoGcnjXcKt3GpAUOTrt+ZZ1XdokMSo8Ya4/WRfWhXAi9z35E6jUSNDt1vrqbu0auWUjIXZPLHsWd4Rwdm5EVHPVsVXafYwN6v7OjVyzsvUlKK8h3df7RFT2WXyiXE1VSSQ9fFGAZcnaFEt6X0s9Y2TIueFpaYUFb0MfvJ7juTizqrNh/GaCgx8SE0SAqh8ff/V4YbZFLaaglVp5vHonOyyiqLvtTGcoyVDIOZjBI/finds2qNWMzaxbAQzCxXON22qlNGoUfJRe89eCUjPTS/5+OrD7W2eAe/qxQ5GGpyMD3cf5RTllpTzAIBQMO1ny3p16lleNVCad/3CR0FDWWXYgilEaXy9/tCb7SSR8r/nkTwSldmH//e27huVsfbTedHDfw28GV+QlJL1+Npj93Wv4pptcZOaQsg7mYnhdlQcgKLETZ6NJ64se6kgJPLAu/zM7NLK5vVUTvuznrfsoCPXqOvnTKJF11uPMm+EGM5UewTzs5KrzyzmhYpju1OzM7KWtDOmxOUl/EPB/KTk6ojHgi2/cE+X1DPX91d0UNNVuPpVyS7msG4TqhLHrw9/nVr44d7dhTeK4GrV/GLstg+KxKipprj7cNqdtKzsNK9NwY+/TbRA77xqzFpWnOuK8DQAHL3lM9Ww/aLbzY+J2YVxr957bjz/26dDUSRGTTXEuQeHCP0dfSW/VoO09aVzI9MCk6o+JYGllZaMlbi0+fmffnkp2RVvQ3NOeDw7EwmAY6xBDw/Kyq0GUO27K+pGUWvfL+bMM80ud/eEtOJRadVJjvSbR96nVgMlFfs8c8hW0zo/DHwWpL874/4EMa5pt1PuSePn7OdUfNp1QHQf/OQsc+7Wu133loElIWelu2iRHABpt5HXoi9N6b/VVYot39Fmx2j5WdntrbcyarTpxRsiSbmtqHkbNJkhN5bcsqazXMY8Tb083fmPlQRb18HIWTnbu/20ordzor3QP7T3sReQlB5q6/SybjMuQYOFcb/3j3XulEJOY9s4h4nin1RQpmP3U3GB046eni6o2x1Udva415QMkQwN23oMEO3GETOyDRhOznh8T8dPAFnlGWMHbldnNm9hBg9yWO8TrL8nXJ3N7GBq4aFS4FH/e7VOpx1yx/hdV+XW25vUFOKCiIsxor8zrhL36jYvtWDlnPrazfF5afXH639kd9CX/NzM8A2jbyaJZtC8J3f2BiQmXF0xxAgmi+ctkr15Zf/Z25l8hqy0jnXH4fVWohLWTjNds0+sOnSfy9Ob++umX9QARs+10/I8rnv0fgpZyc49DaU/NDgfiNCCnB4K70DFuE4Zu293P77saq+uT8ukZV0GGhrXrVeVNT5200Vlzb3pQx8WEiwYqI4e59j8ksCmNYU1cJXz1Dm+Jp0eKRno7h5pAM+GPuKYoecDL04atu93AU3Jc1VOX04zetoayLsyXA8KL9dOzZgvZ3nncJ2XCTbyBdDGgaOMcS3FiO6nWKz1vPHLBOALIA0rW+JUvSL8osoKQqaL6tdt6pA1O35qMGtdQNfeZZBW6LRwfOpM9ZaKNDEozRiW4c5h8ZfdfjuqJpDpMq/r9OdBJ7/J9k+O+saDfe6M9Df21q5wVtKZPzWU7bNo5zmDTC4UZDrYmK7S+hRZsRy7Tue8PznAcgTrqwnfZHSX5U9CXB3983ifdgd1X+1wVz7CY+eLVWlCaQXxXj0UlioDgNsmu6hVYd2souWlmdYTTOaavMxqb70Vt19KzMlANQAaVt2+tArQUQ59ZGdNh8smh9TfXgy0ShCTkhzYV9XkTWuJvfg+WIPBIb63jSFI8guzlDHvX5qamX1/C/dfvjuo6ua5c6MUHFsgs58N5AfEL4TCaSiofN+KitciPRemx/4/n0MqDMWHLVC/ACk2KLQTvNdull1TJoYHr7P8dzW8Mn5ip6tpZ397bMv4ofVmhQ/sfYdxcYmfNSV1dZoYhYTVUD0LadnvXRV15hSFtiPTHdm6MD72XcSHDEXcGvBJiBn9P+9Gmg00JkCYAhhTMtVuF9AvpMrkwC//DrqtzLjhXaLZT6ejdFX4kUcX1Ax8rX+kBRYUZxc93xgYoNspnKLbBh2TC/mVP4BuKcal0EYQhjC+/Z2rsIHJnf9Kf0q6UjL1ddJi7pGQ4PHvMe2J5/1mrC8q5NNgaXrgiPMwFvHjKn9xz2DM03w9/W1HHS0pyakPlgN+1IzW//Oscn7wk/V3vnCbDU9FZ8UiKyqyoECBws8KXujJgJMJX1htW9i1i9dITaqD/pUuIjWPS4ECBQoUKPwAUPfjUqBAgQIFChTjUqBAgQIFChTjUqBAgQIFChQoxv3ZUHb2+Anied73+XFB0IWTxKajxKajxI0PX/i+6jKiBiBqAOL//Ade/eMwRA1A1BCUkT/JYAjvzd8wufOGyZ1XL9vy4Rv9Zt6Z0at3XCn/Ti1OPPzXDPd7xU0foBO+ZevcJWFt+1Eekscg603d/9nHTxADbkV8kwaTqcstPYjLBT+XFpKpyy3XEZprCc21hHfpv8Fu8AqmdL62MuhfZu0K5iPxNGX0v4ifYHfQ3SvE73yvsAkTQPw03VLvgndF5XmOtRe8t4Di/x29OqfzaNL28zvvmHq6BttVvtMeOHrfCdNJCAKvePZr6hFCGgZXUHvwbPEzX9n76Z8/ZeYyNdrsWzdS1w+CO4g9+L3GKnzLjr1XK0ECoEmoKtpMGeQ2QV+8OVmiOR3a6AQELdng2yZ7nfxq9cQH/bxWfek+AwnDnp3VDBj/lMAqWZpZ89p2MWWFJyoUodHpP2TtCK1dEZt3kanLrU7sblPBooiBVvdkbrXr8vbWSterCO35pZef2ecuv7lNpnuIh9pP3pnNNFhmLnJXo2Tkj9nhSjHuvx7VSS8H+sar2fd9ayaZHRHieNVfbeb4tcpfkw9g2jv2tf9pXlDG2iFen8sFGJnhPX2znMYOXCMvBkBSjvVvHC+S0Ou0encfabGqnOdPT/95+ghj2TIXmR/bBk7PZeP+wS7QHDZ6VhsD3PxbkFhAGQAK3x40C0hLI+8mpKdSnfEzMe5lL2JpdM2fEzXXTUSD81oLgh/M3frqcphDqkIAABaYSURBVGwZFFXsZg/ymWWkAIDMOb/Md++jjLACHhRVers7nl9opgngsS+xLHWoXsmtWJbrEmuJU4GnipUXe83Y16GOQnjFWYVlcioaLW85FzwKiY9V63zbwUAPsBhotzPm+orQtLWDtUFm/LbzVkhHM42khNvlwlJV/RvOvUfKiIHM3XXg+ooSEgDuXSLuod5BwZWXjnuOrzkM2WksaVvvMF6UPbgTuOxNVqSABjWdU0PtpyozASDzdedTiQP6q8WGJPqWC6FnFe5qaUkjgKo3z5+sCUv1K64EXaKTUcdjQzr3aN8OerakoaokAFRJyIOmoqhoUc+f4BcmbvZ/eSS5KA/sjmbWZ0d0tKQRAAriX/36OO52dkU+aEqaOjsH1TS48tJxryVMFf2szKdq5p5KOYvDcvPN7DNGmf5AJ50po6inqCgGdb0RAwLfXA+M4Y/tziCA0hz/7b73gjPyKgl1a7NJm8d0bOFwyqqIv27cvJ+akl4ChpTRAHu3lT20OSDjHyyZ+Di/CgDOjthwFgBDdVnIXEs6gCKv8ftuvwdQYbHWY6VLvStTqkqD9lz29q+pvcO4taOttQGADLu1YF5qn181os9FpeQIle37/7rbVk0MAMjMRM+t/k9f5vBJlqyhyvC1Mx3Ma92KKkH0aa8bpxPyBEzzWWMXTTWouc0+aufuP7xKQVazHEYd329dJ+7+s7Y9luqpmfcuJrGSUFYevdndwfzTWduCUJRxoW7zmbNZ/mjTyZHnEpM5CrYLRvrO0lMAAF7YCZ+V5xIefCwjpWUM+nb/e7O9gzRRmw56t37NvaMv8wrFJGg9zC/uGjZWqaFvWpl9ePLxBremfwk5h46p3OCsNCn1DCnIEJPstnBkkLue6EznrIRda/22P84tFJOQGNjTt7b2JouQqQusT/juWJk8kAMAPpcJD4F32MTm7vtryrAkv+rTx/txzd0NAzwIAOLaf4TOXCEl1qSNApCVsPs3v20vcwsJFgw0122ZsOkrzngSq0jPWewa5hXKU+motPOw3eDaA58/3nu3evfHBx+qxOSlxi622D1RtbZ7uesH+sc69xmQGLXbvzBVSB+6vPulmUoA3niFLj6Y/iKb1NOVnePRZWFvkbhWJmb8vv7dzZDyfA570HDD7WsNDcVr5Ih7dfPrbX4FsSWknrr04MWdd42Vb5VTb4eC++BPBYMi2Yaj+U9W7jqRTNtCnugM5Q5eaZvJtC1kLd2SLwJsZ70pmuD87vGyuL1WSkcuKl7OBQBueS5Hf+XB6Qkhy+L2WsmduqR1Nqfmx8QLeLIrpwX2w+Wd7zQPz7thXbb/bMKnut4d66+trrk2uBURU8mrfC5UlfVEmSi5rioMZOUnib4WPk0oHz/VvWTFhIectFHXI5MAEErLF88h1084psyA0zhy/S/k+tm15/Jzxs2cTa6fdEa9seh9uHfb8a1wwtgxyfMGe3Gyp51//FAomulkCAp2p8jsXOBOLuw7NyPUKqzmOG5hTjnd2dExcr5bqnvvifkRtj6xRd98UCpTVp0M+ku60605E1OnO7jlh1n5JNTUUlom0Lay9Z8zLnvesNPy+fUaLMzk6J2d2H1UypvJfIuXky2d3r85X1LdjsqD3YyIz/HbvdYmJwrfRoYlkAxWDbWU+S/9+36e3uRjC/demeWolLpv7p2sFlrFLeJyei912XJj6Y5Tzsrxd3Z7RPFJEEb997/aeNZnmKYkx91no2fkRs/XNXQLQHbixY2ekQsdDRiN5qmj9p84G4gRB+buvTLZjh3719zrqXWnGQhSwiK1lvj9fsTbWS7S54JfucjX2+n5jGe65NqKvTdnzZxiWE9kCH5CeFCm6fzTCxfNVo89ejOo9nJRixW/eUZsXOrCZnxGZumP3+mvmP/Xk9VLR4qdXXAxqqK+Z4FqGbA+SwTEvltcYHH1wbKodXpF2y8OCKqZ7BRklLCGrnCJerzs45Xh8xKC+60ME92xUPR+zsiL2xmdTt5amhUw7U53xOdWN6LbU62g29raE/6wHP4hdJ3wuCVr68VBz2tugis+Nf/cigK9k7eWJl8ZPCXiYb+VYWktFGk7mjIsOl0ffdxCRo0dwJBxCfAg07aQcbNr6LZJGwXBI4/Lyyv0Tt5akXXvlxfzTZVJAQC8O2rPoDWWbWmnPTk1PcbkGGmyWICsooS2coNI6NrxWMuFtk98bO3Ksn7fncIjAaAwOGLg8gz9Wd2eBA4N2KX1Yd+L5QH1LwAjXp2KeGHZ4VHoyLT7PWebsQAU3g8dsiHXZlnP90FO+wYRG+c8OZsIAGRe1rTxrxONjP0eDIy6aK0RHeW2OaOmlo8XX7rdrV55xjEpxOnCLv0O9S8UarrBAJhmIPJRwaUo9l+RVeYFHA2JGzkuYooJB4BWrwNuEd6Xo9Nc+2hy9BZvFVEhVHptdHruHZRa6a7MASqUNFxtVPomqCBKcpC5soWdAgIL8wGFtitfTjkJdl08QJdiM5FX+onbutiMkiAAjkNf055/vz9X0HmdfNsdFzLX610Beo1ZqS8PQHuojd+fj/9IrOpnxAJQDYlZPc1NaQSktCdpM44k56OrHMBxdOxd60JKrbDTXHUrLRSm/b9p12dHROwVN4ke3sEMAKRX9jM+cinaT2gwiUboWNluFT0lPaRP55FvQn3yyX7KAGi6uur6GgJbCXqWoaa+pmRXVnREOQnpNtfevqs6CTI2eIlVrTMlIe8+w5xBgAx7dCtGcYpPP2s5AHBc2j9klO+T6EFjLZr5Kem+v9VFQrKjJho8PfIuq9pCqx0XvFR9fHg/x3jWNAdrGUBxxDLHkHG+geGj3buIKuo/11KGANQ7du/E9H2diRGGAK+oQChrYWSqJQlIymo0vOBUQn30KmsdGnQ07S28jiTEVDnpNH8/lFDSvq+TOROA3vh+Fp4nAoOrLAaKivA+AtL4nKSldf7a3KWLlBi0Bu+79WbQ2bj8vjYKkBi2pK5X5JbOMVq2IeEpbEYAOecfn2Sa+R51qDmtUGXuCMd6PyZbnH148vXW0i0ARYOL7locAJ3t19gFD/KMrbTtzPkY/Ve4+JCrQ0Ya0QH5Q2viD88PvZRrtawmkv5ikfbMCjRpWNpso8DLzOXD2HCgkTQHUNFW6lZTwnzC+be2BdwGflk1W0anJr1EdDZ5eB0AsMapd8OcW+8Z1lPtJQAsnaRodSk7tVrbkIZrx5LU3HttGasEANomHqMTx1xJ2TXAqK6f6Z11drspSROAllx/LQC4dSFNfECnLWMUWAS0V3Sdfv+W181c96VKb85E+6npJq3TURIDwNm2UEvz94QwobotHdnpFWx19X4dxZXEoKys07G+1jXZYACgKYNGgpsCGepkv5+fccmCJ9F83PMUP1fvQzPtFEAT5WGHfRadS3iayUXNnY99uBU1t2ez6OIA2HSw6eIAmy26WFsE80WvqxZ9kzkKW1nJWouiYEKWP8nnQ77t05/c4thyMce6K+gl5U0kqr3ySmHEAiCki3eSrNEcOotOA1fABdhA5vuXKx/HeOZXoCbNxdAqFpKgfcsVZwlphcjN6LDpbT3VUiwqJyFNCHITN/u/PJxelCe6IJXtVhuUy9KZAClLhxSdAMCit9O7ZagZm7Q9GU0Sep2X77aTKsh/cCiAPmW6kwUTQE58RnFpxsG+G+o9yVcvaeG30gJue514FxNXyq8GAELZmN8+Gc4vzKtkm+mLokhCR01NujIzqRxdJACALiFTO78gzhKr4NUIqkQXZyP/LeeWhumadtIwG9Sxu6UCUzS4JENVU6HmbyZbnClWwms5fyWjLi/iVKasmgIZk54P1PYuH2B+YamiuqKVVI37yDK1kMfdrFRAASi89+CXPa8ux5aJlE7WuBwkIHz/Ngfmlv2/zKbCot0X55cLMUPVuJVzH0oKJqIn6Xra0gjLSwWM4zLDaDJ/GdU6tcaaNsIPD1OrRYz7xSLtGbCmDUubbZTEoPEmcisuicfqTjFX6zbEappdzWWzMtqmndtxU5iYjqYo9ysjQxPyhFUAUPwqgXgU9JTY+6lFsjaVJSSUagWmQw9l6Qbdzo1LExqMkKkdC05XI9rFD6WAUlxiSXloibJ2Yj1FlMypBKTQaYiR9cU3PRxLHWyletqpjBmiIt1Ka8MCQYAEhX9FjAuAhm3zSHflxo7lFW+bg3lTD8/0dlBVACJX7rNM++ZVs5UlCHDr7g8XlHKrICn1hVV3AiFP8HXv2IzFpteXbCEAFEZPuxFV5uCU2E1LjwZEBxHe32c3ipF95QRz9mdB+b7zDzdpdAv51ay7BAOVH9z2PSG+9WX1wW5Gvb0+27CzLIDc7dRsOaa0mp6qooHq9DV5a+Z5vjRb0E0VAMnU7LDRe1zrI1Qy/sEBjwitpeP3DdOTYaP0luei3eD/QKnXHD35YI+Mt6+S3wSGnpvx8OXvi5a5iJiZYJJfMSUm4Fc1GCsxCSAd1a2bVkp+5Tz/WcTy8XHuhkYsAgHXiSVlFa2p1W7gm+lFQ6Z6Dx40N8hWshX9L2zNz5L1rVZrirRCTNtlWL5sowDIuozLtk8PfJgQ+PDtfLfn81fPIGdp491Re8v5TwQNs+5Sjrs/3F3WrlWZgin7hp92acrZJ9nsNmRmjF2tYvd+YQk+x9Ig8IlG8LPs148y/1zxdL+/dfBfuq0i3WIISTB+8PrFfwF+jv24jYiLkLcxEENQUv5nD8a8Todt98MOqjULOpJSW7+pjpeVlZVR3Aqni5DuqsBGVo5o4pYsfJXNh6pCbcpJ+DytNsGcm/+SkOil0MgQCltH65ImEvz7WbXtLyuILRfrrtjsQdOZGXcZGr9309SjAUBOfmEj54kFMQgEXzlzYqAph6zMB8LPOqqs4FkFa1ZP8+4SDADIzXkt+PaC0GP3rZjwRoh+u7xXa8sTRnZDrYsuHY7hk5A10uDkpcU0ZzgJflUDPi2MysiT0h81Sk+GDQAZ8fmC+v3ABCDGr2pdSxTkFDnc5MRikRQlZ2aWcNQ0JFqODdTVuzjbTt+/YMZQdnRgAr/9YQKZl5RaUVO8NDczn6Gk8WmGhdMJyEPVZz+ekRdeWkMJvJioAhiomgCITAqWNDg2y7AmY5kTn1sbHNPNOiojOvkBj/wyIQ027Wg/wG8S+9FinyulrZjXr1d7dHwJtBS1ABirWQuL/eNri8dlhtEk+tVdsf7FIqCzWUgpFo1tSXZlI01hswAevy2GhUZAUM5tlY0SBYmqGgMm9t5+fH6EqyzuJsWJssphjYQ79OX/praLbmW6GtDDn2fz2iAebGNNWkJ0cW2Rylfx1fqGUgCM9SXSwjOjmzJc0mz7QTpLtvd4uFU96snHd62zb/wEVDPAUaYo9udjXB1F08rsU4H5XG6dCWc5/9rVLDDA6mD469TClLdJPid9BpxNAqBnJI93CbdyqwFBka/fmmdVra3l3bFh2uoaW1qxcgr0Pj30TTIjJz/7+DYv+8HdZysqpDbb1LupIyLkj8SC1Ly0YwHv47WMJ32axOVoyRCI+RjB4/MELdERoTrRXB5PnvyZWJBSlH3hVqiXuPZ67WYn5uRkO/PzfbK5AAS5Mate5jT63lxHHh/jTmcUZ5dVFLWXDlUsLedWfxx2OTQguyQ1L+95VMRs/+gkAGwZcxbvdHIuF0BlzpmHcXHfQRYYasYmlo1gZqHShok5RpdxVtwAv6cpYFnbDbAov7byyovw3Nz07PjACM+VN2Pr2QttI8WykBcvPpQV5VbUyJGEjrx4ccbbxCoAZXEvr/gU1s+LEZKyipziN09Sy3mtoF2mrn1/+bi/rwaGFeUmZfjsvZ+tYNGre/NlSh796R8ckp6bW54TG/3iTamyniqj/VMGYryXz8/4peem5wftvRtH6Dp0+yReDFswhSiN/6wFyQvWvX6dWhjld2fJI4b1OGMOAGMlk+Jsr7ByAMLYsMXHPzkxym69p/Oihy8ODogvyE7JCva69+e7RpJH77xqzFpWnOuK8JaDxtra3131XRTC6O+izwGg22GBWYX/Fv+b8QUpb6Pmb30De5txdcuhv1iEkHcyE8PtqDgARYmbPFMbOfQ9OzBxKeRxaklGcWUNG7dgWGRkDWV5/ncS07l1E1VN2iig3HffraMP0xNzSnNj33mGFMNQSas2q9xIuK1N9RTaN7pj5uhy/SIXHEmLT65Mfldw7firNV4tHDgydIJa5d3YtdfyU1Iq7u18dTKV4+asBKDT+I7Dy7N+WRT7NLYy+UNJ8JX38zZ/qNl58cYr/Jhfbnw2Lzu17NqdPBVdRc3WUUb5c9DM6w4AoPAzZZVNu51yTxo/Zz+n4tPuIKL74CdnmXO33u26twwsCTkr3UWL5ABIu428Fn1pSv+trlJs+Y42O0bLz8r+Dm6Inu3d4eSixw873RdAVnne2CH1NuPS+ttov7/trZ3Ph67xDWdrvXpG1qmv3Ryfl1Z/vP60OyguiLgYU+uPXyXuAQwtvxVDhtIIQ4fB93mBy65e+5VLQlP3lFvfIc1Pd6lZXnYomHrxAgGmuqzy9u56p4Ib+OkyVnZeifcnHr8w99PepLaDo31gej8t/5duJ17ngSmhKD/aspscAIbq6tGdP/j4c57T5NgyE7qbTcx4/zNKNMu6Z0/dZ74nYnpuNHXe9wtjj+/FRUfzKqtlVVUM7GwV6vWw/mRX51ivk667KoSk04lN7l3Ash48b27xmbm7b9PY4mp6Q50NE27WzwAajVvc5fCB078cEIAu2h1Uev/CohUxAiEABrbsnLwFhLKxxx03fRqslkxz5970/nXfyUqmkrnRnCMj9VvI89E5Fbnem86eyqwER8powIhFC3RaCGMzwzeMvpkkSqx6T+7sDUhMuLpiiBEAaAy1Z127sHJ9BVNPY/yh8Rb1DmYhtCCnh8I7UGk46WlifkA8YkB/n0KOQjeP8f59pQDA1P7G6uxJs/YRBFtJS3PX7A4X/qoVPFmzYzddVNbcGz80QLQ7yOkzi8xR33iwz52R/sbe2hXOSs29TsPafR1qUj4y005Myv/Nb/rQl4ViEgp9ez/c2U2zhSKsgaucp87xNen0SMlAd/dIA3g2EJFBHiPnzvbpY/usbqtPC4aF0Fq92SpyvZfmYUFdkaZsFEBXIAs2rD01N5MLloTBwH4hq80431zO5ewt7x5irz4Y1XNPpZgEq6OZnNvSFjIoco7drm0MXbXnqVk2qaort/7PXrMMAIDQUD11sdvGDTETR77Pr6abGsgOmm5a452x2Lj7Z+j2BG4enWbVXeXEfgut1jBuMYo+QGY9daThF0It6ra+tuTpMn7beevtaPd2ktk/harLiL9c/8ypH42aM6d0/CBJ+bw/CDz/WVtCbOZt+qXJhWjCUHzYAvULkGL/DA3OOXRM5Y5W3Xb871SEwo9ApSc+PoHhMWoz7k8Z41L4ESjBh0Fgj4bhnB9dc/IIlPJqJkEp/ESg2UBjAoQp7VzbS4FCk84cC+prKLqlGPe/CqYrzF3/sdp1fKgR+Ekh6Ur1AQVKrn4kqKwyBQoUfgjInGtrnj380sSC9mjHlTaSVA9RoBiXYlwKFChQoEDhuzEuBQoUKFCgQOHbglq+TYECBQoUKFCMS4ECBQoUKFCMS4ECBQoUKFCgGJcCBQoUKFCgGJcCBQoUKFCgGJcCBQoUKFCgQDEuBQoUKFCgQDEuBQoUKFCgQIFiXAoUKFCgQOGfxf8BvbQ7Bqr8KRYAAAAASUVORK5CYII=;" vertex="1" parent="1">
                    <mxGeometry x="170" y="350" width="635" height="324" as="geometry"/>
                </mxCell>
                <mxCell id="3" value="" style="curved=1;endArrow=classic;html=1;exitX=0.806;exitY=0.283;exitDx=0;exitDy=0;exitPerimeter=0;entryX=0.05;entryY=0.941;entryDx=0;entryDy=0;entryPerimeter=0;strokeWidth=4;" parent="1" target="6" edge="1">
                    <mxGeometry width="50" height="50" relative="1" as="geometry">
                        <mxPoint x="677.3020000000001" y="480.8409999999999" as="sourcePoint"/>
                        <mxPoint x="205.914" y="716.1179999999999" as="targetPoint"/>
                        <Array as="points">
                            <mxPoint x="677" y="520"/>
                            <mxPoint x="620" y="560"/>
                            <mxPoint x="510" y="570"/>
                            <mxPoint x="280" y="530"/>
                            <mxPoint x="160" y="550"/>
                            <mxPoint x="120" y="600"/>
                            <mxPoint x="140" y="650"/>
                        </Array>
                    </mxGeometry>
                </mxCell>
                <mxCell id="4" value="" style="curved=1;endArrow=classic;html=1;exitX=0.803;exitY=0.988;exitDx=0;exitDy=0;exitPerimeter=0;strokeWidth=4;entryX=0.058;entryY=0.355;entryDx=0;entryDy=0;entryPerimeter=0;" parent="1" target="6" edge="1" source="6">
                    <mxGeometry width="50" height="50" relative="1" as="geometry">
                        <mxPoint x="687.3019999999999" y="730.0010000000001" as="sourcePoint"/>
                        <mxPoint x="202" y="470" as="targetPoint"/>
                        <Array as="points">
                            <mxPoint x="680" y="740"/>
                            <mxPoint x="500" y="780"/>
                            <mxPoint x="110" y="720"/>
                            <mxPoint x="80" y="560"/>
                            <mxPoint x="140" y="465"/>
                        </Array>
                    </mxGeometry>
                </mxCell>
            </root>
        </mxGraphModel>
    </diagram>
</mxfile>
